<svg width="12" height="12" viewBox="0 0 12 12" fill="none" xmlns="http://www.w3.org/2000/svg">
    <path
        d="M11.1702 0.220484C11.0519 0.0891444 10.8863 0.0101658 10.7097 0.000914523C10.5332 -0.00833672 10.3602 0.0528968 10.2289 0.171151L4.03219 5.74782L1.14619 2.86182C1.08469 2.79814 1.01113 2.74736 0.929795 2.71242C0.848459 2.67748 0.760979 2.65909 0.67246 2.65832C0.58394 2.65755 0.496154 2.67442 0.414223 2.70794C0.332292 2.74146 0.257857 2.79096 0.195262 2.85355C0.132667 2.91615 0.083165 2.99058 0.0496444 3.07251C0.0161238 3.15445 -0.00074404 3.24223 2.51711e-05 3.33075C0.000794382 3.41927 0.0191852 3.50675 0.0541246 3.58809C0.0890639 3.66942 0.139852 3.74299 0.203525 3.80448L3.53686 7.13782C3.65761 7.25852 3.82006 7.3283 3.99074 7.33276C4.16141 7.33723 4.3273 7.27604 4.45419 7.16182L11.1209 1.16182C11.2522 1.04351 11.3312 0.877889 11.3404 0.701365C11.3497 0.524842 11.2884 0.35187 11.1702 0.220484Z"
        fill="#2536D0" />
    <path
        d="M10.2288 4.17107L4.03217 9.74774L1.14617 6.86174C1.02043 6.7403 0.852029 6.6731 0.677231 6.67462C0.502433 6.67614 0.335225 6.74625 0.21162 6.86986C0.0880142 6.99346 0.0179016 7.16067 0.0163826 7.33547C0.0148637 7.51027 0.0820599 7.67867 0.203499 7.8044L3.53683 11.1377C3.65758 11.2584 3.82004 11.3282 3.99071 11.3327C4.16139 11.3371 4.32727 11.276 4.45417 11.1617L11.1208 5.16174C11.2482 5.04241 11.3237 4.8779 11.3311 4.70353C11.3385 4.52915 11.2773 4.35883 11.1605 4.22913C11.0437 4.09942 10.8807 4.02069 10.7065 4.00984C10.5323 3.99898 10.3608 4.05687 10.2288 4.17107Z"
        fill="#2536D0" />
</svg>
    