<svg width="426" height="509" viewBox="0 0 426 509" fill="none" xmlns="http://www.w3.org/2000/svg">
    <g clip-path="url(#clip0_90_1696)">
        <path
            d="M426 465.342H287.932V369.167H426V465.342ZM289.547 463.741H424.393V370.775H289.547V463.741Z"
            fill="white" />
        <path
            d="M413.857 418.054H300.084V383.245H413.857V418.054ZM301.699 416.454H412.242V384.853H301.699V416.454Z"
            fill="white" />
        <path
            d="M413.857 455.869H300.084V421.061H413.857V455.869ZM301.699 454.269H412.242V422.669H301.699V454.269Z"
            fill="white" />
        <path
            d="M356.966 405.414C354.051 405.414 351.678 403.054 351.678 400.152C351.678 397.251 354.051 394.891 356.966 394.891C359.881 394.891 362.255 397.251 362.255 400.152C362.255 403.054 359.881 405.414 356.966 405.414ZM356.966 396.499C354.939 396.499 353.292 398.14 353.292 400.152C353.292 402.165 354.939 403.806 356.966 403.806C358.993 403.806 360.64 402.165 360.64 400.152C360.64 398.14 358.993 396.499 356.966 396.499Z"
            fill="white" />
        <path
            d="M356.966 440.158C354.051 440.158 351.678 437.798 351.678 434.897C351.678 431.995 354.051 429.635 356.966 429.635C359.881 429.635 362.255 431.995 362.255 434.897C362.255 437.798 359.881 440.158 356.966 440.158ZM356.966 431.244C354.939 431.244 353.292 432.884 353.292 434.897C353.292 436.909 354.939 438.55 356.966 438.55C358.993 438.55 360.64 436.909 360.64 434.897C360.64 432.884 358.993 431.244 356.966 431.244Z"
            fill="white" />
        <path
            d="M215.031 450.786C213.69 450.382 160.159 443.763 132.037 440.32L131.843 440.296L126.635 428.674L206.569 438.833L215.426 450.245L214.877 450.673C214.942 450.754 215.015 450.778 215.023 450.778L215.031 450.786ZM132.319 439.657C134.483 439.924 154.127 442.332 173.562 444.749C185.6 446.244 195.209 447.456 202.112 448.337C206.214 448.863 209.387 449.275 211.559 449.574C212.899 449.76 213.763 449.873 214.32 449.962L206.189 439.487L127.773 429.522L132.311 439.657H132.319Z"
            fill="white" />
        <path
            d="M214.926 451.174C214.926 451.174 214.926 451.174 214.918 451.174C213.585 450.794 164.6 444.717 131.996 440.724L131.576 440.676L125.981 428.189L206.795 438.453L216.008 450.317L215.144 450.996L215.031 450.851L214.934 451.174H214.926ZM132.594 439.277C135.646 439.649 154.733 441.993 173.61 444.337C185.689 445.84 195.289 447.044 202.16 447.925C206.262 448.45 209.443 448.863 211.615 449.162C212.334 449.259 212.923 449.339 213.392 449.404L205.98 439.859L128.444 430.007L132.594 439.277Z"
            fill="white" />
        <path
            d="M277.864 508.256H259.592L259.487 508.119L205.786 438.938L220.836 435.26L220.973 435.438L277.872 508.248L277.864 508.256ZM259.931 507.561H276.435L220.553 436.052L206.989 439.366L259.931 507.561Z"
            fill="white" />
        <path
            d="M278.687 508.661H259.382L259.156 508.37L205.075 438.703L220.981 434.816L221.28 435.196L278.687 508.661ZM260.125 507.157H275.603L220.392 436.505L207.683 439.608L260.117 507.157H260.125Z"
            fill="white" />
        <path
            d="M277.097 508.418L276.871 508.127L220.198 435.608L232.697 425.885L232.907 426.184L285.954 500.692L277.089 508.426L277.097 508.418ZM221.175 435.729L277.194 507.416L285.025 500.587L232.552 426.887L221.175 435.737V435.729Z"
            fill="white" />
        <path
            d="M277.04 509L276.548 508.37L219.625 435.527L232.778 425.295L233.238 425.934L286.495 500.74L277.032 508.992L277.04 509ZM221.748 435.794L277.25 506.818L284.484 500.506L232.471 427.453L221.748 435.794Z"
            fill="white" />
        <path
            d="M246.043 464.137H237.921C234.998 464.137 232.212 462.876 230.291 460.678L215.741 444.078C213.335 441.338 210 439.584 206.383 439.156L131.084 430.306C126.998 429.829 123.518 427.114 122.065 423.267L73.8542 295.831C71.3755 289.284 75.2753 282.075 82.106 280.548L95.0973 277.646L237.961 435.188L246.043 464.137Z"
            fill="#9DD1EB" />
        <path
            d="M282.329 391.117C281.715 389.428 280.31 388.005 278.203 387.569L213.157 373.927C210.186 373.304 207.74 371.219 206.65 368.391L169 270.583C167.442 266.526 163.187 264.182 158.923 265.031L89.5342 278.738C84.1165 279.805 80.9595 285.478 82.8973 290.634L129.057 413.463C130.22 416.559 132.997 418.757 136.275 419.177L206.892 428.367C212.221 429.062 217.114 431.648 220.683 435.656L246.043 464.129L314.706 418.967L282.329 391.109V391.117Z"
            fill="#B1E2F8" />
        <path
            d="M122.735 479.323C122.735 479.323 122.719 479.323 122.711 479.323C122.517 479.315 122.372 479.145 122.388 478.952L125.593 428.286C125.601 428.092 125.771 427.946 125.965 427.963C126.159 427.971 126.304 428.14 126.288 428.334L123.082 479C123.074 479.186 122.921 479.323 122.735 479.323Z"
            fill="white" />
        <path
            d="M122.735 479.727H122.703C122.275 479.695 121.96 479.339 121.984 478.927L125.19 428.262C125.206 428.059 125.295 427.874 125.448 427.744C125.601 427.615 125.787 427.542 125.997 427.558C126.409 427.583 126.724 427.938 126.7 428.358L123.494 479.024C123.47 479.42 123.139 479.727 122.743 479.727H122.735Z"
            fill="white" />
        <path
            d="M133.215 483.397L132.82 483.243L122.614 479.299C122.436 479.226 122.348 479.024 122.412 478.847C122.477 478.669 122.687 478.58 122.864 478.644L132.674 482.435L139.901 440.579L152.416 442.122L152.343 442.486L145.771 476.325L133.256 483.138L133.215 483.389V483.397ZM140.474 441.354L133.409 482.265L145.149 475.872L151.592 442.728L140.474 441.363V441.354Z"
            fill="white" />
        <path
            d="M133.522 483.946L122.461 479.671C122.073 479.517 121.879 479.081 122.033 478.701C122.105 478.515 122.251 478.362 122.428 478.281C122.614 478.2 122.816 478.192 123.002 478.265L132.351 481.877L139.562 440.126L152.892 441.767L146.126 476.575L133.619 483.389L133.522 483.938V483.946ZM140.797 441.799L133.942 481.505L144.786 475.598L151.108 443.06L140.805 441.791L140.797 441.799Z"
            fill="white" />
        <path
            d="M301.384 477.448L307.996 489.361L318.178 490.097L323.741 480.568L316.256 467.427L301.384 477.448Z"
            fill="#F4835C" />
        <path
            d="M307.996 489.361L314.294 500.627L345.791 483.049L323.741 480.568L317.968 490.21L307.996 489.361Z"
            fill="#072636" />
        <path
            d="M310.475 447.335L317.088 459.248L327.269 459.983L332.841 450.463L325.348 437.321L310.475 447.335Z"
            fill="#F4835C" />
        <path
            d="M317.088 459.247L323.394 470.522L354.891 452.944L332.841 450.462L327.059 460.104L317.088 459.247Z"
            fill="#072636" />
        <path
            d="M309.975 457.025C278.671 426.693 263.209 398.326 263.209 398.326C263.209 398.326 253.367 402.884 213.787 403.91C174.208 404.937 154.563 379.673 154.563 379.673C156.711 358.846 219.488 358.878 219.488 358.878C219.488 358.878 284.355 361.981 295.917 372.213C306.818 381.855 334.084 445.443 334.084 445.443L309.966 457.025H309.975Z"
            fill="#1E5F93" />
        <path
            d="M191.454 251.316V237.633C191.454 236.987 191.914 236.429 192.552 236.316L203.21 234.344C204.05 234.19 204.825 234.845 204.801 235.702L204.502 246.329C204.502 246.402 204.494 246.483 204.478 246.556L202.887 254.516C202.726 255.308 201.91 255.785 201.143 255.526L192.375 252.593C191.826 252.407 191.454 251.898 191.454 251.316Z"
            fill="#1B1B14" />
        <path
            d="M273.439 382.065C261.877 371.833 197.009 368.73 197.009 368.73C197.009 368.73 134.233 368.698 132.085 389.525C132.085 389.525 151.729 414.789 191.309 413.763C230.888 412.736 240.731 408.178 240.731 408.178C240.731 408.178 261.845 447.246 293.148 477.586L299.414 484.043L323.798 472.462C323.798 472.462 284.347 391.715 273.439 382.073V382.065Z"
            fill="#1E5F93" />
        <path
            d="M206.48 243.598C203.783 245.263 204.058 249.15 201.24 248.811C198.422 248.471 194.434 240.947 194.434 240.947C194.434 240.947 191.729 240.906 193.142 244.147C194.555 247.388 195.822 248.762 194.264 248.916C192.706 249.069 189.742 248.617 189.508 249.869C189.266 251.122 190.639 251.938 190.639 251.938C190.639 251.938 188.636 253.538 189.985 254.476C189.985 254.476 188.806 256.205 190.001 257.062C190.001 257.062 192.851 257.232 193.012 259.034C193.15 260.586 194.127 262.372 194.401 262.849H194.385L188.58 291.362L179.117 274.22L158.891 287.087C158.891 287.087 177.785 330.883 195.709 322.954C213.634 315.026 203.533 260.23 203.533 260.23H203.501C203.565 259.592 203.969 255.624 204.93 252.811C205.98 249.74 209.177 241.925 206.48 243.598Z"
            fill="#F4835C" />
        <path
            d="M137.164 265.16C137.164 265.16 129.025 267.463 120.894 274.026C112.772 280.596 106.377 294.214 104.641 303.581C104.641 303.581 110.164 306.992 115.848 307.752C115.848 307.752 117.43 319.373 131.197 348.598C135.848 358.466 125.876 379.018 132.077 389.533C132.077 389.533 194.086 377.345 212.067 358.91C212.067 358.91 193.182 335.376 192.035 325.257C190.889 315.139 199.415 305.497 185.374 290.723C185.374 290.723 185.665 265.758 152.682 262.533"
            fill="white" />
        <path
            d="M162.888 219.667C162.888 219.667 169.073 231.054 165.423 234.279C161.774 237.504 157.527 220.839 162.888 219.667Z"
            fill="#1B1B14" />
        <path
            d="M125.198 232.606C125.198 232.606 121.451 252.318 137.955 253.481C154.458 254.645 141.839 229.462 136.235 228.557C130.632 227.652 125.198 232.606 125.198 232.606Z"
            fill="#1B1B14" />
        <path
            d="M130.992 223.618C134.271 220.955 134.971 216.38 132.555 213.399C130.139 210.418 125.522 210.16 122.243 212.823C118.963 215.486 118.263 220.061 120.679 223.042C123.095 226.023 127.712 226.281 130.992 223.618Z"
            fill="#1B1B14" />
        <path
            d="M153.07 266.195L152.416 260.424C161.701 260.004 165.488 248.843 165.221 241.019C165.036 235.661 164.89 230.295 162.944 225.211C162 222.738 160.692 220.515 158.907 218.762C154.959 214.882 148.984 213.646 143.478 214.228C140.03 214.591 136.502 215.691 134.103 218.18C131.156 221.235 130.543 225.615 130.527 229.68C130.527 230.529 131.512 239.298 131.746 239.201C130.446 239.734 130.268 241.722 130.325 242.911C130.397 244.503 130.874 246.062 131.673 247.436C132.174 248.301 132.804 249.093 133.538 249.772C133.885 250.087 134.184 250.33 134.62 250.491C134.685 250.516 135.549 250.823 135.549 250.823C135.549 250.855 137.172 265.168 137.172 265.168C137.172 265.168 142.751 278.617 153.15 278.14C153.15 278.14 160.433 273.63 153.078 266.203L153.07 266.195Z"
            fill="#F4835C" />
        <path
            d="M149.057 233.746C149.637 233.746 150.106 233.275 150.106 232.695C150.106 232.115 149.637 231.645 149.057 231.645C148.477 231.645 148.007 232.115 148.007 232.695C148.007 233.275 148.477 233.746 149.057 233.746Z"
            fill="#1B1B14" />
        <path
            d="M159.949 232.517C160.529 232.517 160.998 232.047 160.998 231.467C160.998 230.886 160.529 230.416 159.949 230.416C159.369 230.416 158.899 230.886 158.899 231.467C158.899 232.047 159.369 232.517 159.949 232.517Z"
            fill="#1B1B14" />
        <path
            d="M155.783 241.383C155.653 241.383 155.524 241.31 155.468 241.181C155.387 241.003 155.468 240.801 155.637 240.72C156.122 240.494 157.405 239.734 157.559 238.894C157.623 238.546 157.478 238.207 157.131 237.859C155.234 235.96 154.345 231.281 154.305 231.087C154.273 230.901 154.394 230.715 154.588 230.682C154.773 230.65 154.959 230.771 154.991 230.957C154.999 231.006 155.879 235.621 157.623 237.366C158.14 237.883 158.35 238.433 158.245 239.015C158.003 240.389 156.017 241.318 155.928 241.351C155.879 241.375 155.831 241.383 155.783 241.383Z"
            fill="#1B1B14" />
        <path
            d="M162.807 240.163C163.966 240.163 164.906 239.225 164.906 238.069C164.906 236.913 163.966 235.976 162.807 235.976C161.648 235.976 160.708 236.913 160.708 238.069C160.708 239.225 161.648 240.163 162.807 240.163Z"
            fill="#F16944" />
        <path
            d="M145.964 242.062C147.124 242.062 148.064 241.125 148.064 239.969C148.064 238.813 147.124 237.875 145.964 237.875C144.805 237.875 143.865 238.813 143.865 239.969C143.865 241.125 144.805 242.062 145.964 242.062Z"
            fill="#F16944" />
        <path
            d="M155.306 247.412C152.367 247.412 150.292 245.618 150.252 245.594C150.106 245.465 150.09 245.246 150.219 245.101C150.349 244.955 150.567 244.947 150.712 245.068C150.922 245.254 155.799 249.417 161.12 243.856C161.257 243.719 161.475 243.711 161.612 243.848C161.749 243.977 161.757 244.204 161.62 244.341C159.368 246.693 157.155 247.412 155.298 247.412H155.306Z"
            fill="#1B1B14" />
        <path
            d="M156.751 228.678C156.655 228.678 156.558 228.638 156.493 228.557C156.364 228.411 156.38 228.193 156.525 228.064C156.55 228.04 158.883 226.019 161.572 227.49C161.741 227.579 161.806 227.797 161.709 227.959C161.62 228.129 161.402 228.193 161.233 228.096C158.972 226.86 157.058 228.508 156.978 228.581C156.913 228.638 156.832 228.67 156.743 228.67L156.751 228.678Z"
            fill="#1B1B14" />
        <path
            d="M146.586 229.834C146.489 229.834 146.392 229.794 146.328 229.721C146.199 229.575 146.215 229.357 146.36 229.228C146.384 229.204 148.718 227.183 151.406 228.654C151.576 228.743 151.641 228.961 151.544 229.123C151.455 229.293 151.237 229.357 151.067 229.26C148.798 228.016 146.836 229.721 146.812 229.737C146.748 229.794 146.667 229.826 146.578 229.826L146.586 229.834Z"
            fill="#1B1B14" />
        <path
            d="M132.19 245.303C132.045 245.303 131.915 245.214 131.859 245.068C131.383 243.743 131.366 242.636 131.794 241.787C132.263 240.858 133.11 240.591 133.143 240.575C133.328 240.518 133.522 240.623 133.579 240.809C133.635 240.995 133.53 241.189 133.345 241.246C133.312 241.254 132.739 241.448 132.408 242.119C132.077 242.789 132.109 243.711 132.513 244.842C132.577 245.02 132.481 245.222 132.303 245.287C132.263 245.303 132.222 245.311 132.19 245.311V245.303Z"
            fill="#1B1B14" />
        <path
            d="M131.738 239.185C131.738 239.185 133.094 239.039 134.418 239.904C135.743 240.769 136.469 242.086 137.212 241.9C143.881 240.203 134.871 228.444 144.398 226.149C148.112 225.252 151.608 224.799 157.615 220.168C157.615 220.168 159.69 223.522 162.944 225.203C162.944 225.203 163.574 221.251 162.726 218.891C161.879 216.531 155.734 206.857 144.342 209.662C144.342 209.662 140.458 210.801 138.988 212.248C138.988 212.248 130.131 210.284 126.821 217.089C123.51 223.902 122.428 237.569 131.738 239.185Z"
            fill="#1B1B14" />
        <path
            d="M135.541 232.21C135.436 232.21 135.339 232.21 135.242 232.202C135.048 232.194 134.903 232.024 134.911 231.838C134.919 231.644 135.089 231.499 135.282 231.507C135.371 231.507 135.46 231.507 135.541 231.507C140.442 231.507 146.707 224.039 146.772 223.958C146.893 223.813 147.111 223.788 147.264 223.91C147.41 224.031 147.434 224.249 147.313 224.403C147.297 224.419 145.609 226.439 143.316 228.387C140.337 230.917 137.721 232.202 135.541 232.202V232.21Z"
            fill="#1B1B14" />
        <path
            d="M134.846 248.01C134.515 248.01 134.184 247.857 133.91 247.566C133.482 247.113 133.167 246.256 133.433 245.376C133.49 245.19 133.684 245.085 133.869 245.141C134.055 245.198 134.16 245.392 134.103 245.578C133.918 246.192 134.136 246.79 134.418 247.089C134.499 247.17 134.701 247.356 134.927 247.307C135.194 247.243 135.444 246.879 135.613 246.297C135.88 245.392 135.589 244.535 134.741 243.759C134.071 243.145 133.296 242.806 133.288 242.806C133.11 242.733 133.03 242.523 133.102 242.345C133.175 242.167 133.385 242.086 133.563 242.159C134.79 242.676 136.929 244.252 136.284 246.491C135.969 247.558 135.468 247.889 135.097 247.978C135.016 247.994 134.935 248.01 134.846 248.01Z"
            fill="#1B1B14" />
        <path
            d="M152.416 260.424L152.682 262.525C152.682 262.525 145.375 262.469 143.138 257.119C143.138 257.119 147.603 260.772 152.424 260.416L152.416 260.424Z"
            fill="#1B1B14" />
        <path
            d="M190.469 362.806C189.363 361.432 175.645 357.229 175.645 357.229L127.555 335.174C126.36 334.778 125.521 333.711 125.408 332.458L124.988 308.924C124.988 308.924 112.441 308.237 105.23 303.509L106.005 334.867C106.005 334.867 104.157 343.87 110.115 346.642C115.993 349.382 171.697 368.277 173.126 368.762C174.248 371.332 179.19 369.28 180.699 370.209C182.217 371.138 185.253 375.333 185.649 376.569C186.044 377.806 188.426 376.982 188.426 376.982C190.566 377.531 191.454 375.737 191.454 375.737C193.457 376.319 193.658 374.355 193.658 374.355C194.345 375.317 196.008 373.248 196.008 373.248C196.008 373.248 191.575 364.172 190.469 362.798V362.806Z"
            fill="#F4835C" />
        <path
            d="M193.658 374.711C193.521 374.711 193.392 374.63 193.335 374.492L190.017 366.483C189.944 366.305 190.025 366.103 190.203 366.031C190.38 365.958 190.582 366.039 190.655 366.216L193.973 374.226C194.046 374.403 193.965 374.605 193.788 374.678C193.747 374.694 193.699 374.702 193.658 374.702V374.711Z"
            fill="#1B1B14" />
        <path
            d="M191.454 376.093C191.317 376.093 191.18 376.012 191.131 375.875L188.362 368.811C188.289 368.633 188.378 368.431 188.556 368.358C188.733 368.286 188.935 368.375 189.008 368.552L191.777 375.616C191.85 375.794 191.761 375.996 191.583 376.069C191.543 376.085 191.503 376.093 191.454 376.093Z"
            fill="#1B1B14" />
        <path
            d="M188.426 377.337C188.281 377.337 188.152 377.248 188.095 377.103L185.786 370.581C185.722 370.403 185.818 370.201 185.996 370.136C186.182 370.072 186.376 370.169 186.44 370.346L188.749 376.869C188.814 377.046 188.717 377.248 188.539 377.313C188.499 377.329 188.459 377.329 188.426 377.329V377.337Z"
            fill="#1B1B14" />
        <path
            d="M196.969 335.724C196.888 335.724 196.799 335.691 196.735 335.635C196.646 335.562 194.627 333.719 193.101 330.204C191.696 326.971 190.477 321.645 192.641 314.67C194.732 307.914 192.593 301.844 190.429 297.941C188.16 293.843 185.39 291.208 185.156 290.99C181.886 288.671 179.9 286.092 178.81 284.331C177.623 282.407 177.219 281.041 177.203 280.985C177.147 280.799 177.26 280.605 177.437 280.556C177.623 280.5 177.817 280.605 177.873 280.791C177.89 280.847 179.496 286.141 185.576 290.432L185.608 290.457C185.73 290.57 188.612 293.229 191.026 297.577C193.263 301.602 195.475 307.873 193.303 314.872C191.204 321.629 192.375 326.769 193.723 329.897C195.184 333.283 197.179 335.101 197.195 335.117C197.34 335.247 197.348 335.465 197.219 335.61C197.146 335.683 197.058 335.724 196.961 335.724H196.969Z"
            fill="#1B1B14" />
        <path
            d="M124.988 309.271C124.988 309.271 124.939 309.271 124.915 309.271C124.729 309.231 124.608 309.045 124.649 308.859C124.697 308.649 125.795 303.598 126.885 300.906C126.958 300.729 127.16 300.64 127.337 300.712C127.515 300.785 127.604 300.987 127.531 301.165C126.457 303.8 125.343 308.956 125.327 309.005C125.295 309.166 125.149 309.279 124.988 309.279V309.271Z"
            fill="#1B1B14" />
        <path
            d="M147.095 332.426C144.624 332.426 142.622 331.885 141.128 331.262C138.149 330.018 136.59 328.248 136.526 328.175C136.397 328.029 136.413 327.811 136.558 327.682C136.703 327.553 136.921 327.569 137.051 327.714C137.051 327.714 138.593 329.452 141.427 330.632C144.043 331.715 148.346 332.547 153.998 330.349C154.176 330.276 154.378 330.365 154.45 330.551C154.523 330.729 154.434 330.931 154.248 331.004C151.56 332.046 149.162 332.434 147.095 332.434V332.426Z"
            fill="#1B1B14" />
        <path
            d="M314.706 449C314.601 449 314.504 448.959 314.431 448.87C314.27 448.668 297.831 428.205 288.19 408.97C278.711 390.066 272.753 389.048 272.688 389.04C272.171 388.959 222.532 380.853 218.083 379.948C217.897 379.907 217.776 379.721 217.808 379.535C217.849 379.349 218.026 379.228 218.22 379.261C222.653 380.166 272.284 388.264 272.785 388.345C273.019 388.369 279.099 389.282 288.804 408.655C298.412 427.825 314.803 448.232 314.964 448.434C315.085 448.587 315.061 448.806 314.908 448.927C314.843 448.975 314.763 449.008 314.69 449.008L314.706 449Z"
            fill="#1B1B14" />
        <path d="M108.791 462.488H36.9312V464.105H108.791V462.488Z" fill="white" />
        <path
            d="M74.4436 429.271H53.2651L62.4939 482.806C62.4374 482.887 62.4051 482.976 62.4051 483.065C62.4051 484.229 67.7663 485.174 74.379 485.174C80.9918 485.174 86.353 484.229 86.353 483.065L95.6302 429.271H74.4517H74.4436Z"
            fill="white" />
        <path
            d="M74.4436 433.199C86.1402 433.199 95.6221 431.441 95.6221 429.272C95.6221 427.102 86.1402 425.344 74.4436 425.344C62.7471 425.344 53.2651 427.102 53.2651 429.272C53.2651 431.441 62.7471 433.199 74.4436 433.199Z"
            fill="#A9CDEC" />
        <path
            d="M93.7974 407.499C87.879 412.801 93.4986 399.554 95.6221 393.016C97.7456 386.478 95.8724 380.416 89.6553 387.722C83.4382 395.029 83.1476 390.131 82.8488 383.714C82.5501 377.297 80.7738 340.969 74.4436 343.91C68.1054 346.852 73.0872 394.835 71.6096 402.488C70.132 410.142 67.7663 396.305 67.1688 388.652C66.5794 380.998 65.6912 345.971 58.2953 350.845C50.8994 355.718 63.3255 403.078 59.4822 406.901C55.6389 410.724 53.2651 391.004 45.5705 393.008C39.4906 394.584 50.6168 417.803 55.5663 427.494C59.0705 426.217 66.208 425.352 74.4517 425.352C82.001 425.352 88.6218 426.087 92.3763 427.187C93.4825 423.873 95.4203 419.347 98.545 415.743C104.165 409.269 99.7318 402.205 93.8135 407.499H93.7974Z"
            fill="#90E4E5" />
        <path
            d="M55.5582 427.494C56.8743 430.072 57.7544 431.696 57.7544 431.696C61.63 432.618 67.6613 433.208 74.4436 433.208C81.2259 433.208 87.2492 432.618 91.1329 431.696C91.1329 431.696 91.4881 429.829 92.3682 427.187C88.6138 426.088 81.993 425.352 74.4436 425.352C66.208 425.352 59.0624 426.225 55.5582 427.494Z"
            fill="#90E4E5" />
        <path d="M78.2384 394.646L77.8459 422.098L78.4514 422.106L78.8439 394.655L78.2384 394.646Z"
            fill="#072636" />
        <path d="M70.132 422.564L63.6404 400.759L64.2218 400.589L70.7134 422.394L70.132 422.564Z"
            fill="#072636" />
        <path d="M64.3671 425.966L53.1279 409.729L53.6285 409.382L64.8677 425.627L64.3671 425.966Z"
            fill="#072636" />
        <path d="M86.3853 428.164L85.8524 427.865L95.3234 411.022L95.8563 411.321L86.3853 428.164Z"
            fill="#072636" />
        <path
            d="M74.2821 246.507H0V172.153H74.2821V246.507ZM1.60675 244.899H72.6835V173.754H1.60675V244.899Z"
            fill="white" />
        <path
            d="M37.1411 234.336C23.5846 234.336 12.5553 223.296 12.5553 209.726C12.5553 196.157 23.5846 185.117 37.1411 185.117C50.6976 185.117 61.7268 196.157 61.7268 209.726C61.7268 223.296 50.6976 234.336 37.1411 234.336ZM37.1411 186.725C24.4647 186.725 14.1621 197.046 14.1621 209.726C14.1621 222.407 24.4727 232.727 37.1411 232.727C49.8094 232.727 60.1201 222.407 60.1201 209.726C60.1201 197.046 49.8094 186.725 37.1411 186.725Z"
            fill="white" />
        <path
            d="M396.82 106.116H249.031C243.243 106.116 238.551 110.812 238.551 116.606V184.527C238.551 190.32 243.243 195.017 249.031 195.017H396.82C402.608 195.017 407.3 190.32 407.3 184.527V116.606C407.3 110.812 402.608 106.116 396.82 106.116Z"
            fill="white" />
        <path
            d="M310.467 118.198H258.34C254.675 118.198 251.703 121.173 251.703 124.842V177.019C251.703 180.688 254.675 183.662 258.34 183.662H310.467C314.133 183.662 317.104 180.688 317.104 177.019V124.842C317.104 121.173 314.133 118.198 310.467 118.198Z"
            fill="#AEE9FF" />
        <path
            d="M362.319 127.089H328.408C327.964 127.089 327.6 126.725 327.6 126.28C327.6 125.836 327.964 125.472 328.408 125.472H362.319C362.763 125.472 363.127 125.836 363.127 126.28C363.127 126.725 362.763 127.089 362.319 127.089Z"
            fill="#1B1B14" />
        <path
            d="M384.119 138.807H328.408C327.964 138.807 327.6 138.444 327.6 137.999C327.6 137.555 327.964 137.191 328.408 137.191H384.119C384.563 137.191 384.927 137.555 384.927 137.999C384.927 138.444 384.563 138.807 384.119 138.807Z"
            fill="#1B1B14" />
        <path
            d="M399.46 162.245H328.408C327.964 162.245 327.6 161.881 327.6 161.437C327.6 160.992 327.964 160.628 328.408 160.628H399.46C399.904 160.628 400.268 160.992 400.268 161.437C400.268 161.881 399.904 162.245 399.46 162.245Z"
            fill="#1B1B14" />
        <path
            d="M399.46 173.964H328.408C327.964 173.964 327.6 173.6 327.6 173.155C327.6 172.711 327.964 172.347 328.408 172.347H399.46C399.904 172.347 400.268 172.711 400.268 173.155C400.268 173.6 399.904 173.964 399.46 173.964Z"
            fill="#1B1B14" />
        <path
            d="M305.582 183.662L300.891 157.606C300.786 156.879 300.326 156.256 299.664 155.957L288.74 150.607L281.626 151.488C279.68 152.239 277.605 152.684 275.805 153.791C272.486 155.828 272.01 160.37 270.993 163.764C270.072 166.835 269.152 169.899 268.231 172.97C267.165 176.534 266.092 180.106 265.026 183.67H305.582V183.662Z"
            fill="white" />
        <path
            d="M275.086 134.281C274.303 137.336 274.731 141.062 275.231 143.818C275.53 145.442 276.007 147.245 277.153 148.497C277.662 149.055 278.275 149.483 279.002 149.702C279.269 149.782 281.618 150.009 281.618 149.645V152.288L284.493 154.607L288.731 151.003C288.731 151.003 288.731 144.456 288.731 144.44C288.731 144.44 289.103 144.254 289.135 144.238C289.321 144.141 289.45 144.02 289.587 143.858C289.886 143.519 290.128 143.123 290.306 142.711C290.597 142.048 290.726 141.321 290.677 140.593C290.645 140.052 290.459 139.171 289.846 138.993C289.959 139.025 289.951 135.017 289.91 134.629C289.692 132.794 289.2 130.846 287.714 129.618C286.503 128.616 284.856 128.301 283.289 128.309C280.778 128.325 278.146 129.19 276.572 131.146C275.853 132.026 275.377 133.101 275.078 134.265L275.086 134.281Z"
            fill="#F4815F" />
        <path
            d="M275.482 133.061C275.482 133.061 277.468 133.643 279.301 133.085C281.134 132.528 286.253 131.647 286.019 133.085C285.784 134.524 284.977 140.844 286.422 140.286C287.868 139.729 287.698 138.605 289.862 139.009C289.862 139.009 290.903 135.332 290.661 131.889C290.419 128.446 285.623 126.846 280.665 127.484C275.708 128.123 272.591 127.161 272.914 129.561C273.237 131.962 273.98 132.794 275.49 133.061H275.482Z"
            fill="#072636" />
        <path
            d="M278.598 136.73L278.405 136.48C278.711 136.245 279.454 135.946 280.133 136.48L279.931 136.73C279.285 136.221 278.623 136.714 278.598 136.73Z"
            fill="#F9F8DC" />
        <path
            d="M281.626 152.288C281.626 152.288 285.461 150.211 285.865 148.045C285.865 148.045 282.829 149.807 281.626 149.645V152.288Z"
            fill="#072636" />
        <path d="M284.202 137.161L284.169 137.482L288.441 137.922L288.475 137.601L284.202 137.161Z"
            fill="#F9F8DC" />
        <path
            d="M282.022 139.608C280.762 139.608 279.745 138.581 279.745 137.328C279.745 136.076 280.77 135.049 282.022 135.049C283.273 135.049 284.299 136.076 284.299 137.328C284.299 138.581 283.273 139.608 282.022 139.608ZM282.022 135.365C280.94 135.365 280.06 136.245 280.06 137.328C280.06 138.411 280.94 139.292 282.022 139.292C283.104 139.292 283.984 138.411 283.984 137.328C283.984 136.245 283.104 135.365 282.022 135.365Z"
            fill="#F9F8DC" />
        <path
            d="M276.507 139.608C275.248 139.608 274.23 138.581 274.23 137.328C274.23 136.076 275.256 135.049 276.507 135.049C277.759 135.049 278.784 136.076 278.784 137.328C278.784 138.581 277.759 139.608 276.507 139.608ZM276.507 135.365C275.425 135.365 274.545 136.245 274.545 137.328C274.545 138.411 275.425 139.292 276.507 139.292C277.589 139.292 278.469 138.411 278.469 137.328C278.469 136.245 277.589 135.365 276.507 135.365Z"
            fill="#F9F8DC" />
        <path
            d="M283.903 135.162C283.839 135.162 283.782 135.146 283.725 135.114C281.893 134.055 280.585 135.041 280.528 135.089C280.375 135.21 280.149 135.186 280.028 135.025C279.906 134.871 279.931 134.645 280.084 134.524C280.157 134.467 281.82 133.19 284.081 134.491C284.25 134.588 284.315 134.814 284.21 134.984C284.145 135.097 284.024 135.162 283.895 135.162H283.903Z"
            fill="#072636" />
        <path
            d="M277.985 135.162C277.92 135.162 277.864 135.146 277.807 135.114C275.974 134.055 274.666 135.041 274.61 135.089C274.456 135.21 274.23 135.186 274.109 135.025C273.988 134.871 274.012 134.645 274.166 134.524C274.238 134.467 275.902 133.19 278.162 134.491C278.332 134.588 278.397 134.814 278.292 134.984C278.227 135.097 278.106 135.162 277.977 135.162H277.985Z"
            fill="#072636" />
        <path
            d="M285.865 176.129C285.865 176.129 285.825 176.129 285.801 176.113C285.72 176.081 285.688 175.984 285.72 175.903L291.759 162.382L289.91 159.852L292.987 159.206L289.167 151.795C289.127 151.714 289.159 151.617 289.24 151.576C289.321 151.536 289.418 151.568 289.458 151.649L293.471 159.44L290.467 160.071L292.131 162.35L286.019 176.04C285.994 176.097 285.93 176.137 285.873 176.137L285.865 176.129Z"
            fill="#072636" />
        <path
            d="M283.701 176.129C283.637 176.129 283.572 176.089 283.548 176.016L278.324 160.248L279.931 158.196H277.662L281.239 152.11C281.287 152.037 281.384 152.005 281.457 152.053C281.529 152.102 281.562 152.199 281.513 152.272L278.219 157.872H280.585L278.679 160.305L283.847 175.903C283.871 175.984 283.83 176.081 283.742 176.105C283.725 176.105 283.709 176.113 283.693 176.113L283.701 176.129Z"
            fill="#072636" />
        <path d="M288.74 151.003L284.622 172.469L281.626 152.288L284.501 154.607L288.74 151.003Z"
            fill="#1E5F93" />
        <path
            d="M287.407 158.664L284.323 154.583L288.941 150.655L287.407 158.664ZM284.686 154.624L287.262 158.026L288.546 151.342L284.694 154.615L284.686 154.624Z"
            fill="#072636" />
        <path
            d="M282.426 158.252L281.441 151.964L284.678 154.575L282.434 158.252H282.426ZM281.804 152.603L282.571 157.5L284.323 154.639L281.804 152.611V152.603Z"
            fill="#072636" />
        <path d="M284.625 154.62L284.358 154.622L284.48 172.482L284.746 172.48L284.625 154.62Z"
            fill="#072636" />
        <path
            d="M384.733 210.373H261.118C255.343 210.373 250.662 215.058 250.662 220.839V275.877C250.662 281.657 255.343 286.343 261.118 286.343H384.733C390.508 286.343 395.189 281.657 395.189 275.877V220.839C395.189 215.058 390.508 210.373 384.733 210.373Z"
            fill="white" />
        <path
            d="M312.098 220.79H267.69C264.569 220.79 262.038 223.323 262.038 226.447V270.898C262.038 274.022 264.569 276.555 267.69 276.555H312.098C315.22 276.555 317.75 274.022 317.75 270.898V226.447C317.75 223.323 315.22 220.79 312.098 220.79Z"
            fill="#AEE9FF" />
        <path
            d="M356.692 228.347H327.625C327.181 228.347 326.817 227.983 326.817 227.539C326.817 227.094 327.181 226.73 327.625 226.73H356.692C357.136 226.73 357.499 227.094 357.499 227.539C357.499 227.983 357.136 228.347 356.692 228.347Z"
            fill="#1B1B14" />
        <path
            d="M375.327 238.393H327.689C327.245 238.393 326.882 238.029 326.882 237.585C326.882 237.14 327.245 236.776 327.689 236.776H375.327C375.771 236.776 376.134 237.14 376.134 237.585C376.134 238.029 375.771 238.393 375.327 238.393Z"
            fill="#1B1B14" />
        <path
            d="M388.358 258.484H327.802C327.358 258.484 326.995 258.12 326.995 257.676C326.995 257.231 327.358 256.868 327.802 256.868H388.358C388.802 256.868 389.166 257.231 389.166 257.676C389.166 258.12 388.802 258.484 388.358 258.484Z"
            fill="#1B1B14" />
        <path
            d="M388.358 268.53H327.802C327.358 268.53 326.995 268.166 326.995 267.722C326.995 267.277 327.358 266.914 327.802 266.914H388.358C388.802 266.914 389.166 267.277 389.166 267.722C389.166 268.166 388.802 268.53 388.358 268.53Z"
            fill="#1B1B14" />
        <path
            d="M303.564 276.555C302.554 268.667 306.583 260.084 296.983 257.951C296.071 257.821 295.207 257.708 294.521 257.611C290.039 256.973 287.553 256.997 283.362 258.177L281.602 258.67C281.602 258.67 277.573 261.006 271.848 276.555H303.564Z"
            fill="#1E5F93" />
        <path
            d="M284.678 254.993C284.678 254.993 285.792 257.045 283.798 258.266C284.242 259.519 284.396 260.909 285.042 262.089C285.784 263.446 287.674 263.996 289.135 263.931C289.813 263.899 290.5 263.737 291.081 263.374C291.977 262.808 292.486 261.846 292.874 260.892C293.011 260.561 294.036 257.773 293.972 257.749C293.972 257.749 292.284 256.94 292.244 255.098C292.244 255.098 287.577 253.32 284.678 254.993Z"
            fill="#F4835C" />
        <path
            d="M284.678 254.993C284.678 254.993 285.792 257.046 283.798 258.266L284.638 261.184C284.815 260.901 285.227 260.076 285.502 259.066C285.922 257.506 287.31 258.096 289.717 257.765C292.123 257.434 292.236 255.106 292.236 255.106C292.236 255.106 287.569 253.328 284.67 255.001L284.678 254.993Z"
            fill="#072636" />
        <path
            d="M296.16 238.942C296.16 238.942 301.804 251.388 298.097 255.098C297.282 255.906 296.248 256.657 295.094 256.851C294.149 257.005 292.801 256.674 292.381 255.712C292.3 255.518 292.26 255.308 292.252 255.098C292.236 254.508 292.486 253.95 292.801 253.449C293.108 252.956 293.511 252.503 293.762 251.978C294.012 251.453 294.117 250.806 294.262 250.216C294.545 249.069 294.924 247.662 294.747 246.466C294.569 245.319 296.176 238.942 296.176 238.942H296.16Z"
            fill="#072636" />
        <path
            d="M281.214 238.732C281.214 238.732 275.231 251.016 278.833 254.823C279.624 255.655 280.641 256.439 281.788 256.658C282.724 256.844 284.081 256.536 284.533 255.591C284.622 255.405 284.67 255.195 284.678 254.985C284.711 254.395 284.476 253.829 284.178 253.32C283.887 252.819 283.491 252.358 283.257 251.817C283.023 251.275 282.934 250.629 282.805 250.047C282.555 248.891 282.208 247.468 282.426 246.289C282.635 245.149 281.206 238.732 281.206 238.732H281.214Z"
            fill="#072636" />
        <path
            d="M281.457 245.432C281.457 245.432 280.044 245.165 280.415 246.879C280.786 248.592 281.118 248.988 282.183 249.101C282.183 249.101 282.958 256.722 288.804 256.609C294.65 256.496 294.9 249.085 294.9 249.085C294.9 249.085 296.41 248.964 296.636 246.717C296.862 244.47 295.336 245.618 295.336 245.618C295.336 245.618 296.37 237.843 289.062 237.641C281.755 237.439 281.449 245.432 281.449 245.432H281.457Z"
            fill="#F4835C" />
        <path
            d="M294.521 240.308C294.521 240.308 293.293 242.239 288.417 242.369C283.54 242.498 282.361 244.906 282.426 246.297C282.49 247.687 282.094 248.349 281.626 247.024C281.158 245.699 278.8 239.726 282.716 237.148C286.632 234.57 293.205 234.174 295.853 238.384C298.501 242.595 294.521 240.316 294.521 240.316V240.308Z"
            fill="#072636" />
        <path
            d="M296.257 240.987C296.257 240.987 297.007 243.816 295.748 245.4C295.748 245.4 293.826 243.201 293.85 240.946C293.875 238.692 296.039 239.29 296.257 240.987Z"
            fill="#072636" />
        <path
            d="M294.472 243.516C294.472 243.516 294.682 247.202 296.103 244.801C296.103 244.801 295.376 243.468 294.472 243.516Z"
            fill="#072636" />
        <path
            d="M293.309 276.555H312.938C310.217 261.628 299.155 258.597 299.155 258.597C298.493 258.347 297.775 258.128 296.983 257.951L293.309 276.555Z"
            fill="white" />
        <path
            d="M287.149 276.555L281.602 258.282C281.602 258.282 271.97 258.266 265.155 276.555H287.149Z"
            fill="white" />
        <path
            d="M276.911 276.556C277.218 275.044 277.508 273.711 277.686 272.991L277.436 272.927C277.25 273.654 276.951 275.012 276.644 276.556H276.911Z"
            fill="#072636" />
        <path
            d="M281.489 270.833L279.551 272.328L281.376 276.555H281.667L279.874 272.409L282.288 270.542L278.929 270.647L278.049 261.482L277.791 261.507L278.687 270.922L281.489 270.833Z"
            fill="#072636" />
        <path
            d="M297.048 276.555H297.322L298.824 271.326L298.848 271.245L297.08 269.896L299.648 269.976L301.351 262.097L301.093 262.04L299.438 269.71L296.273 269.613L298.55 271.342L297.048 276.555Z"
            fill="#072636" />
        <path d="M306.874 276.555L304.71 270.47L304.468 270.551L306.6 276.555H306.874Z"
            fill="#072636" />
        <path
            d="M358.436 354.304H347.196L352.089 368.318C352.057 368.366 352.041 368.407 352.041 368.455C352.041 369.094 354.883 369.611 358.395 369.611C361.907 369.611 364.75 369.094 364.75 368.455L369.667 354.304H358.427H358.436Z"
            fill="white" />
        <path
            d="M358.436 356.454C364.643 356.454 369.675 355.491 369.675 354.304C369.675 353.117 364.643 352.154 358.436 352.154C352.228 352.154 347.196 353.117 347.196 354.304C347.196 355.491 352.228 356.454 358.436 356.454Z"
            fill="#A9CDEC" />
        <path
            d="M370.418 350.441C369.392 346.99 363.038 352.17 363.038 352.17C363.038 352.17 367.148 344.201 364.814 343.725C362.481 343.248 361.641 347.006 361.641 347.006C359.582 344.339 358 347.087 358 347.087C358 347.087 357.903 336.726 353.236 338.261C348.561 339.797 350.337 351.693 350.337 351.693C349.401 349.39 347.439 349.964 347.439 349.964C344.968 351.233 347.108 353.585 348.843 355.039C348.932 355.112 349.013 355.185 349.102 355.249C349.102 355.249 349.102 355.249 349.11 355.258C349.191 355.322 349.271 355.387 349.352 355.451C349.352 355.451 349.352 355.451 349.36 355.46C349.441 355.524 349.514 355.581 349.594 355.637C351.653 356.138 354.843 356.462 358.436 356.462C362.029 356.462 365.444 356.114 367.487 355.581C367.567 355.524 367.648 355.468 367.729 355.403C367.81 355.346 367.89 355.282 367.979 355.217C368.06 355.152 368.149 355.088 368.229 355.023C368.31 354.958 368.399 354.886 368.48 354.813C368.811 354.522 369.134 354.207 369.416 353.875C370.248 352.898 370.789 351.718 370.41 350.457L370.418 350.441Z"
            fill="#90E4E5" />
        <path
            d="M188.007 108.306L149.654 80.1566V0H148.039V80.1566L109.687 108.306H138.367C138.778 113.721 143.3 117.996 148.847 117.996C154.394 117.996 158.915 113.721 159.327 108.306H188.007ZM148.847 81.5628L183.081 106.69H114.604L148.839 81.5628H148.847Z"
            fill="white" />
    </g>
    <defs>
        <clipPath id="clip0_90_1696">
            <rect width="426" height="509" fill="white" />
        </clipPath>
    </defs>
</svg>
    