<svg width="539" height="344" viewBox="0 0 539 344" fill="none" xmlns="http://www.w3.org/2000/svg">
    <g clip-path="url(#clip0_90_1513)">
        <path d="M111.507 150.206H82.7438H53.9809L40.0583 211.035H82.7438H125.429L111.507 150.206Z"
            fill="#2536D0" />
        <path d="M86.0142 169.98H79.4733V191.263H86.0142V169.98Z" fill="white" />
        <path d="M93.3722 183.894V177.345H72.1153V183.894H93.3722Z" fill="white" />
        <path
            d="M82.926 203.265C70.4554 203.265 60.3073 193.107 60.3073 180.619C60.3073 168.132 70.4532 157.974 82.926 157.974C95.3988 157.974 105.545 168.132 105.545 180.619C105.545 193.107 95.3988 203.265 82.926 203.265ZM82.926 158.62C70.8092 158.62 60.9507 168.49 60.9507 180.622C60.9507 192.753 70.8092 202.623 82.926 202.623C95.0428 202.623 104.901 192.753 104.901 180.622C104.901 168.49 95.0428 158.62 82.926 158.62Z"
            fill="white" />
        <path d="M111.507 138.88H53.9809V150.208H111.507V138.88Z" fill="#2536D0" />
        <path
            d="M111.507 150.528H53.9809C53.8029 150.528 53.6592 150.384 53.6592 150.206C53.6592 150.027 53.8029 149.884 53.9809 149.884H111.507C111.685 149.884 111.828 150.027 111.828 150.206C111.828 150.384 111.685 150.528 111.507 150.528Z"
            fill="white" />
        <path d="M481.596 150.206H452.834H424.071L410.148 211.035H452.834H495.517L481.596 150.206Z"
            fill="#2536D0" />
        <path d="M456.104 169.98H449.563V191.263H456.104V169.98Z" fill="white" />
        <path d="M463.46 183.896V177.347H442.203V183.896H463.46Z" fill="white" />
        <path
            d="M453.016 203.265C440.545 203.265 430.397 193.107 430.397 180.619C430.397 168.132 440.543 157.974 453.016 157.974C465.489 157.974 475.635 168.132 475.635 180.619C475.635 193.107 465.489 203.265 453.016 203.265ZM453.016 158.62C440.899 158.62 431.04 168.49 431.04 180.622C431.04 192.753 440.899 202.623 453.016 202.623C465.133 202.623 474.991 192.753 474.991 180.622C474.991 168.49 465.133 158.62 453.016 158.62Z"
            fill="white" />
        <path d="M481.596 138.88H424.071V150.208H481.596V138.88Z" fill="#2536D0" />
        <path
            d="M481.596 150.528H424.071C423.893 150.528 423.749 150.384 423.749 150.206C423.749 150.027 423.893 149.884 424.071 149.884H481.596C481.774 149.884 481.918 150.027 481.918 150.206C481.918 150.384 481.774 150.528 481.596 150.528Z"
            fill="white" />
        <path d="M382.683 150.206H353.92H325.157L311.234 211.035H353.92H396.605L382.683 150.206Z"
            fill="#2536D0" />
        <path d="M357.19 169.98H350.649V191.263H357.19V169.98Z" fill="white" />
        <path d="M364.548 183.896V177.347H343.291V183.896H364.548Z" fill="white" />
        <path
            d="M354.102 203.265C341.631 203.265 331.483 193.107 331.483 180.619C331.483 168.132 341.629 157.974 354.102 157.974C366.575 157.974 376.721 168.132 376.721 180.619C376.721 193.107 366.575 203.265 354.102 203.265ZM354.102 158.62C341.985 158.62 332.127 168.49 332.127 180.622C332.127 192.753 341.985 202.623 354.102 202.623C366.219 202.623 376.077 192.753 376.077 180.622C376.077 168.49 366.219 158.62 354.102 158.62Z"
            fill="white" />
        <path d="M382.683 138.88H325.157V150.208H382.683V138.88Z" fill="#2536D0" />
        <path
            d="M382.683 150.528H325.157C324.979 150.528 324.835 150.384 324.835 150.206C324.835 150.027 324.979 149.884 325.157 149.884H382.683C382.861 149.884 383.004 150.027 383.004 150.206C383.004 150.384 382.861 150.528 382.683 150.528Z"
            fill="white" />
        <path
            d="M73.2648 7.55151C87.9465 7.55151 99.8659 19.4852 99.8659 34.1843V67.2885H46.6636V34.1843C46.6636 19.4852 58.5831 7.55151 73.2648 7.55151Z"
            fill="white" />
        <path d="M95.0514 0.322021H51.4803V13.1789H95.0514V0.322021Z" fill="#ED880A" />
        <path
            d="M58.1306 13.5011C57.9526 13.5011 57.8089 13.3572 57.8089 13.179V0.322067C57.8089 0.143857 57.9526 0 58.1306 0C58.3086 0 58.4523 0.143857 58.4523 0.322067V13.179C58.4523 13.3572 58.3086 13.5011 58.1306 13.5011Z"
            fill="#1D1E23" />
        <path
            d="M68.2207 13.5011C68.0427 13.5011 67.899 13.3572 67.899 13.179V0.322067C67.899 0.143857 68.0427 0 68.2207 0C68.3987 0 68.5424 0.143857 68.5424 0.322067V13.179C68.5424 13.3572 68.3987 13.5011 68.2207 13.5011Z"
            fill="#1D1E23" />
        <path
            d="M78.3109 13.5011C78.1329 13.5011 77.9893 13.3572 77.9893 13.179V0.322067C77.9893 0.143857 78.1329 0 78.3109 0C78.4889 0 78.6326 0.143857 78.6326 0.322067V13.179C78.6326 13.3572 78.4889 13.5011 78.3109 13.5011Z"
            fill="#1D1E23" />
        <path
            d="M88.4011 13.5011C88.2231 13.5011 88.0794 13.3572 88.0794 13.179V0.322067C88.0794 0.143857 88.2231 0 88.4011 0C88.5791 0 88.7228 0.143857 88.7228 0.322067V13.179C88.7228 13.3572 88.5791 13.5011 88.4011 13.5011Z"
            fill="#1D1E23" />
        <path
            d="M89.0123 60.5765H57.5194C57.3414 60.5765 57.1977 60.4326 57.1977 60.2544V26.9419C57.1977 26.7637 57.3414 26.6199 57.5194 26.6199H89.0123C89.1903 26.6199 89.334 26.7637 89.334 26.9419V60.2544C89.334 60.4326 89.1903 60.5765 89.0123 60.5765ZM57.8411 59.9324H88.6906V27.264H57.8411V59.9324Z"
            fill="#1D1E23" />
        <path d="M76.1814 34.1069H70.3481V53.0874H76.1814V34.1069Z" fill="#302563" />
        <path d="M82.7458 46.5172V40.677H63.7879V46.5172H82.7458Z" fill="#302563" />
        <g style="mix-blend-mode:multiply" opacity="0.3">
            <path d="M99.8659 67.2884L46.6636 58.9812V67.2884H99.8659Z" fill="#2536D0" />
        </g>
        <path d="M234.71 36.7393H135.644V67.2884H234.71V36.7393Z" fill="#2536D0" />
        <path
            d="M224.84 52.4648H145.515C145.406 52.4648 145.303 52.409 145.245 52.3166L135.374 36.9111C135.277 36.7608 135.322 36.5611 135.47 36.4666C135.62 36.37 135.82 36.4151 135.914 36.5632L145.689 51.8207H224.662L234.437 36.5632C234.534 36.413 234.731 36.37 234.881 36.4666C235.031 36.5633 235.074 36.7629 234.978 36.9111L225.106 52.3166C225.046 52.409 224.946 52.4648 224.836 52.4648H224.84Z"
            fill="white" />
        <path d="M165.685 45.2549H159.571V58.7731H165.685V45.2549Z" fill="white" />
        <path d="M210.783 45.2549H204.669V58.7731H210.783V45.2549Z" fill="white" />
        <path
            d="M207.727 37.742C207.549 37.742 207.405 37.5981 207.405 37.4199V25.0934H162.948V36.7393C162.948 36.9175 162.805 37.0614 162.627 37.0614C162.449 37.0614 162.305 36.9175 162.305 36.7393V24.7713C162.305 24.5931 162.449 24.4492 162.627 24.4492H207.727C207.905 24.4492 208.049 24.5931 208.049 24.7713V37.4199C208.049 37.5981 207.905 37.742 207.727 37.742Z"
            fill="#1D1E23" />
        <g style="mix-blend-mode:multiply">
            <path d="M513.728 223.91H25.2737V231.197L513.728 223.91Z" fill="#5260E0" />
        </g>
        <path d="M513.728 211.036H25.2737V223.91H513.728V211.036Z" fill="#A8AFF0" />
        <g style="mix-blend-mode:multiply">
            <path d="M513.728 80.1624H25.2737V87.4497L513.728 80.1624Z" fill="#5260E0" />
        </g>
        <path d="M513.728 67.2883H25.2737V80.1624H513.728V67.2883Z" fill="#A8AFF0" />
        <path d="M269.501 344H539L529.766 325.631H269.501H9.2345L0 344H269.501Z" fill="#AEE9FF" />
        <path
            d="M431.933 7.55151C446.614 7.55151 458.534 19.4852 458.534 34.1843V67.2885H405.331V34.1843C405.331 19.4852 417.251 7.55151 431.933 7.55151Z"
            fill="white" />
        <path d="M453.719 0.322021H410.148V13.1789H453.719V0.322021Z" fill="#ED880A" />
        <path
            d="M416.798 13.5011C416.62 13.5011 416.477 13.3572 416.477 13.179V0.322067C416.477 0.143857 416.62 0 416.798 0C416.976 0 417.12 0.143857 417.12 0.322067V13.179C417.12 13.3572 416.976 13.5011 416.798 13.5011Z"
            fill="#1D1E23" />
        <path
            d="M426.889 13.5011C426.711 13.5011 426.567 13.3572 426.567 13.179V0.322067C426.567 0.143857 426.711 0 426.889 0C427.067 0 427.21 0.143857 427.21 0.322067V13.179C427.21 13.3572 427.067 13.5011 426.889 13.5011Z"
            fill="#1D1E23" />
        <path
            d="M436.979 13.5011C436.801 13.5011 436.657 13.3572 436.657 13.179V0.322067C436.657 0.143857 436.801 0 436.979 0C437.157 0 437.3 0.143857 437.3 0.322067V13.179C437.3 13.3572 437.157 13.5011 436.979 13.5011Z"
            fill="#1D1E23" />
        <path
            d="M447.069 13.5011C446.891 13.5011 446.747 13.3572 446.747 13.179V0.322067C446.747 0.143857 446.891 0 447.069 0C447.247 0 447.391 0.143857 447.391 0.322067V13.179C447.391 13.3572 447.247 13.5011 447.069 13.5011Z"
            fill="#1D1E23" />
        <path
            d="M447.68 60.5765H416.187C416.009 60.5765 415.866 60.4326 415.866 60.2544V26.9419C415.866 26.7637 416.009 26.6199 416.187 26.6199H447.68C447.858 26.6199 448.002 26.7637 448.002 26.9419V60.2544C448.002 60.4326 447.858 60.5765 447.68 60.5765ZM416.509 59.9324H447.358V27.264H416.509V59.9324Z"
            fill="#1D1E23" />
        <path d="M434.849 34.1069H429.016V53.0874H434.849V34.1069Z" fill="#302563" />
        <path d="M441.414 46.5172V40.677H422.456V46.5172H441.414Z" fill="#302563" />
        <g style="mix-blend-mode:multiply" opacity="0.3">
            <path d="M458.534 67.2884L405.331 58.9812V67.2884H458.534Z" fill="#2536D0" />
        </g>
        <path d="M369.554 36.7393H270.488V67.2884H369.554V36.7393Z" fill="#302563" />
        <path
            d="M359.684 52.4648H280.359C280.25 52.4648 280.147 52.409 280.089 52.3166L270.217 36.9111C270.121 36.7608 270.166 36.5611 270.314 36.4666C270.464 36.37 270.661 36.4151 270.758 36.5632L280.533 51.8207H359.506L369.281 36.5632C369.378 36.413 369.577 36.37 369.725 36.4666C369.875 36.5633 369.918 36.7629 369.822 36.9111L359.95 52.3166C359.89 52.409 359.789 52.4648 359.68 52.4648H359.684Z"
            fill="white" />
        <path d="M300.529 45.2549H294.414V58.7731H300.529V45.2549Z" fill="white" />
        <path d="M345.629 45.2549H339.515V58.7731H345.629V45.2549Z" fill="white" />
        <path
            d="M342.571 37.742C342.393 37.742 342.249 37.5981 342.249 37.4199V25.0934H297.792V36.7393C297.792 36.9175 297.648 37.0614 297.47 37.0614C297.292 37.0614 297.149 36.9175 297.149 36.7393V24.7713C297.149 24.5931 297.292 24.4492 297.47 24.4492H342.571C342.749 24.4492 342.892 24.5931 342.892 24.7713V37.4199C342.892 37.5981 342.749 37.742 342.571 37.742Z"
            fill="#1D1E23" />
        <path
            d="M293.973 215.029C293.539 211.952 291.569 209.312 288.742 208.021L242.287 185.27L212.031 189.011L184.816 195.398C183.021 196.126 181.31 197.045 179.715 198.142L152.466 219.454L127.046 239.337L114.807 183.233L81.4935 196.835C81.4935 196.835 95.772 293.062 103.25 305.303C110.728 317.543 125.007 312.102 125.007 312.102L152.466 290.994L161.72 283.881V325.677H162.03C162.41 325.717 162.796 325.741 163.189 325.741H312.776C313.169 325.741 313.553 325.717 313.934 325.677C317.878 325.254 321.181 322.692 322.663 319.175L293.975 215.034L293.973 215.029Z"
            fill="white" />
        <path
            d="M96.1108 146.167C96.1108 146.167 97.1317 152.628 97.8115 152.967C98.412 153.268 100.893 145.064 101.314 144.297C101.539 143.885 101.8 143.49 102.092 143.12C102.886 142.12 103.863 142.734 104.009 143.745C104.951 150.247 104.17 153.774 104.035 158.859C104.011 159.758 105.193 168.789 107.331 166.569C109.993 163.804 113.336 157.779 115.288 161.71C117.241 165.641 109.484 174.975 107.28 179.819C105.075 184.663 109.564 190.217 109.564 190.217C109.564 190.217 86.797 200.672 85.7569 200.899C85.7569 200.899 83.6552 174.829 82.5143 169.629C81.3712 164.43 78.238 153.993 79.0487 152.724C79.8593 151.455 82.3963 153.079 83.0805 156.198C83.7667 159.318 85.165 158.522 85.165 158.522C85.9306 158.354 83.7324 144.829 83.7324 143.481C83.7045 143.08 83.6767 142.663 83.8075 142.283C83.8396 142.186 83.8868 142.096 83.9426 142.008C84.5838 141.018 86.1343 141.386 86.3574 142.545C86.9493 145.63 88.4998 153.242 89.3126 152.971C89.5785 150.373 89.8423 147.777 90.1082 145.179C90.2626 143.676 90.4149 142.171 90.5693 140.668C90.6336 140.033 90.698 139.397 90.7644 138.762C90.8567 137.86 90.8181 136.896 91.1762 136.046C91.44 135.421 91.9225 134.893 92.5852 134.693C92.776 134.635 92.9862 134.605 93.1749 134.674C93.5052 134.792 93.666 135.159 93.784 135.49C94.4145 137.259 94.8584 139.088 95.2208 140.93C95.3988 141.839 95.5575 142.751 95.7098 143.664C95.8428 144.471 96.1151 145.353 96.1151 146.171L96.1108 146.167Z"
            fill="#F0805A" />
        <path
            d="M184.222 115.906C180.877 128.902 182.698 144.707 184.851 156.443C186.118 163.348 188.156 170.99 193.011 176.312C195.179 178.689 197.783 180.502 200.89 181.414C202.012 181.743 212.031 182.713 212.031 181.191V192.412L224.27 202.273L242.287 186.973C242.287 186.973 242.287 159.148 242.287 159.09C242.287 159.09 243.867 158.309 243.991 158.247C244.787 157.847 245.315 157.323 245.909 156.638C247.176 155.181 248.208 153.521 248.98 151.752C250.204 148.939 250.773 145.834 250.573 142.77C250.425 140.486 249.647 136.713 247.045 135.968C247.521 136.103 247.509 119.07 247.318 117.441C246.4 109.647 244.283 101.374 237.97 96.1564C232.82 91.9008 225.821 90.5632 219.142 90.6083C208.458 90.6813 197.287 94.3485 190.564 102.654C187.523 106.411 185.498 110.956 184.222 115.908V115.906Z"
            fill="#F0805A" />
        <path
            d="M243.003 141.549C242.906 141.549 242.81 141.529 242.718 141.484C242.379 141.325 242.231 140.924 242.387 140.585C242.422 140.507 243.269 138.712 245.021 138.435C246.301 138.234 247.654 138.893 249.038 140.396C249.293 140.673 249.274 141.102 248.999 141.358C248.722 141.611 248.293 141.594 248.038 141.317C247 140.19 246.031 139.657 245.24 139.777C244.206 139.936 243.627 141.143 243.62 141.156C243.505 141.403 243.26 141.547 243.003 141.547V141.549Z"
            fill="#172937" />
        <path
            d="M242.628 153.648C242.4 153.648 242.177 153.534 242.049 153.326C241.851 153.006 241.95 152.587 242.269 152.39C244.995 150.702 246.303 148.074 246.157 144.578C246.046 141.886 245.077 139.664 245.066 139.642C244.914 139.299 245.068 138.897 245.411 138.745C245.754 138.592 246.155 138.745 246.308 139.09C246.351 139.187 250.541 148.868 242.986 153.547C242.874 153.616 242.75 153.648 242.628 153.648Z"
            fill="#172937" />
        <path
            d="M202.172 148.546C202.106 148.546 202.04 148.537 201.975 148.516C201.433 148.351 196.644 146.826 195.752 144.235C195.46 143.389 195.608 142.511 196.178 141.695C198.456 138.44 201.482 125.735 201.512 125.606C201.598 125.241 201.964 125.016 202.331 125.102C202.696 125.188 202.923 125.555 202.835 125.92C202.709 126.452 199.717 139.006 197.291 142.474C196.968 142.938 196.886 143.354 197.036 143.79C197.602 145.435 201.081 146.82 202.372 147.215C202.73 147.324 202.934 147.704 202.824 148.063C202.734 148.357 202.466 148.546 202.175 148.546H202.172Z"
            fill="#172937" />
        <path
            d="M213.732 130.525C214.858 130.525 215.771 129.612 215.771 128.486C215.771 127.359 214.858 126.446 213.732 126.446C212.605 126.446 211.692 127.359 211.692 128.486C211.692 129.612 212.605 130.525 213.732 130.525Z"
            fill="#172937" />
        <path
            d="M192.994 130.525C194.12 130.525 195.033 129.612 195.033 128.486C195.033 127.359 194.12 126.446 192.994 126.446C191.867 126.446 190.954 127.359 190.954 128.486C190.954 129.612 191.867 130.525 192.994 130.525Z"
            fill="#172937" />
        <path
            d="M206.487 158.498C201.315 158.498 197.223 155.704 197.025 155.567C196.717 155.352 196.642 154.929 196.854 154.62C197.068 154.311 197.491 154.236 197.8 154.448C197.851 154.485 203.028 158.006 208.767 156.928C212.194 156.284 215.16 154.137 217.585 150.547C217.796 150.236 218.218 150.154 218.529 150.365C218.84 150.575 218.921 150.998 218.711 151.309C216.071 155.217 212.807 157.557 209.005 158.268C208.145 158.429 207.302 158.498 206.485 158.498H206.487Z"
            fill="#172937" />
        <path
            d="M185.917 110.705C185.917 110.705 194.353 113.185 202.172 110.804C209.992 108.423 231.748 104.683 230.727 110.804C229.707 116.926 226.307 143.786 232.428 141.407C238.546 139.026 237.867 134.266 247.045 135.966C247.045 135.966 251.465 120.324 250.444 105.705C249.424 91.0829 229.029 84.2829 207.952 87.0033C186.875 89.7237 173.618 85.6442 174.977 95.843C176.337 106.044 179.519 109.587 185.917 110.705Z"
            fill="#172937" />
        <path
            d="M199.164 126.304L198.334 125.226C199.62 124.232 202.814 122.952 205.679 125.233L204.832 126.298C202.093 124.118 199.282 126.214 199.161 126.304H199.164Z"
            fill="#FDFBE3" />
        <path
            d="M212.031 192.409C212.031 192.409 228.349 183.57 230.047 174.389C230.047 174.389 217.129 181.869 212.031 181.189V192.409Z"
            fill="#172937" />
        <path d="M222.964 128.14L222.825 129.492L241.012 131.361L241.151 130.009L222.964 128.14Z"
            fill="#FDFBE3" />
        <path
            d="M213.732 138.517C208.39 138.517 204.042 134.169 204.042 128.827C204.042 123.485 208.39 119.137 213.732 119.137C219.074 119.137 223.421 123.485 223.421 128.827C223.421 134.169 219.074 138.517 213.732 138.517ZM213.732 120.496C209.14 120.496 205.402 124.232 205.402 128.827C205.402 133.422 209.138 137.158 213.732 137.158C218.325 137.158 222.061 133.422 222.061 128.827C222.061 124.232 218.325 120.496 213.732 120.496Z"
            fill="#FDFBE3" />
        <path
            d="M190.274 138.517C184.932 138.517 180.585 134.169 180.585 128.827C180.585 123.485 184.932 119.137 190.274 119.137C195.617 119.137 199.964 123.485 199.964 128.827C199.964 134.169 195.617 138.517 190.274 138.517ZM190.274 120.496C185.683 120.496 181.945 124.232 181.945 128.827C181.945 133.422 185.681 137.158 190.274 137.158C194.868 137.158 198.604 133.422 198.604 128.827C198.604 124.232 194.868 120.496 190.274 120.496Z"
            fill="#FDFBE3" />
        <path
            d="M221.718 119.644C221.459 119.644 221.197 119.577 220.955 119.438C213.176 114.95 207.596 119.139 207.362 119.317C206.695 119.833 205.737 119.715 205.218 119.051C204.701 118.388 204.812 117.432 205.473 116.91C205.769 116.676 212.857 111.231 222.484 116.786C223.215 117.209 223.466 118.143 223.043 118.875C222.76 119.367 222.246 119.642 221.716 119.642L221.718 119.644Z"
            fill="#172937" />
        <path
            d="M196.562 119.644C196.303 119.644 196.041 119.577 195.799 119.438C188.02 114.95 182.44 119.139 182.207 119.317C181.54 119.833 180.581 119.715 180.062 119.051C179.545 118.388 179.657 117.432 180.317 116.91C180.615 116.676 187.701 111.231 197.328 116.786C198.059 117.209 198.31 118.143 197.888 118.875C197.605 119.367 197.09 119.642 196.56 119.642L196.562 119.644Z"
            fill="#172937" />
        <path d="M212.031 192.41L225.289 283.877L242.287 186.969L224.27 202.271L212.031 192.41Z"
            fill="#1F5790" />
        <path
            d="M230.047 293.738C229.955 293.738 229.861 293.719 229.771 293.678C229.428 293.526 229.273 293.122 229.428 292.781L255.102 235.337L247.234 224.603L260.309 221.851L244.062 190.342C243.891 190.009 244.021 189.597 244.354 189.425C244.688 189.253 245.098 189.384 245.27 189.717L262.336 222.813L249.576 225.499L256.666 235.167L230.669 293.332C230.556 293.586 230.309 293.734 230.047 293.736V293.738Z"
            fill="#172937" />
        <path
            d="M220.871 293.738C220.586 293.738 220.32 293.558 220.225 293.272L198.014 226.28L204.855 217.571H195.207L210.429 191.725C210.62 191.4 211.036 191.293 211.36 191.484C211.684 191.675 211.791 192.092 211.6 192.416L197.585 216.212H207.654L199.537 226.546L221.519 292.845C221.637 293.201 221.444 293.586 221.088 293.704C221.017 293.728 220.944 293.738 220.873 293.738H220.871Z"
            fill="#172937" />
        <path
            d="M225.969 325.674V280.817C225.969 280.441 225.664 280.136 225.289 280.136C224.913 280.136 224.609 280.441 224.609 280.817V325.674H225.969Z"
            fill="#172937" />
        <path
            d="M129.427 265.856C129.414 265.856 129.399 265.856 129.386 265.856C129.011 265.834 128.725 265.512 128.747 265.137C129.414 253.804 126.411 239.618 126.381 239.476C126.302 239.109 126.536 238.749 126.905 238.669C127.274 238.594 127.634 238.826 127.711 239.191C127.741 239.335 130.782 253.695 130.104 265.216C130.083 265.577 129.783 265.856 129.427 265.856Z"
            fill="#172937" />
        <path d="M82.9904 206.628L116.81 192.41L114.807 183.229L81.4935 196.83L82.9904 206.628Z"
            fill="#1F5790" />
        <path
            d="M86.085 214.718C85.817 214.718 85.5617 214.557 85.4545 214.293C85.3151 213.945 85.4824 213.548 85.8298 213.408L116.591 201C116.939 200.858 117.336 201.028 117.477 201.376C117.617 201.724 117.449 202.121 117.102 202.26L86.3402 214.669C86.2566 214.703 86.1708 214.718 86.0872 214.718H86.085Z"
            fill="#172937" />
        <path
            d="M113.448 200.231C112.324 200.231 111.408 199.317 111.408 198.192C111.408 197.067 112.324 196.152 113.448 196.152C114.571 196.152 115.487 197.067 115.487 198.192C115.487 199.317 114.571 200.231 113.448 200.231ZM113.448 197.511C113.072 197.511 112.768 197.816 112.768 198.192C112.768 198.567 113.072 198.872 113.448 198.872C113.823 198.872 114.127 198.567 114.127 198.192C114.127 197.816 113.823 197.511 113.448 197.511Z"
            fill="#172937" />
        <path
            d="M92.3707 172.858C92.0898 172.858 91.8603 172.63 91.8603 172.347C91.8603 165.268 97.9187 163.048 97.9787 163.026C98.2447 162.932 98.5363 163.071 98.6285 163.337C98.7229 163.604 98.5835 163.894 98.3176 163.988C98.0903 164.07 92.879 166.008 92.879 172.349C92.879 172.63 92.6516 172.86 92.3686 172.86L92.3707 172.858Z"
            fill="#172937" />
        <path
            d="M282.997 325.674L275.429 257.791C275.388 257.418 275.049 257.147 274.678 257.19C274.305 257.231 274.037 257.568 274.078 257.942L281.629 325.674H282.997Z"
            fill="#172937" />
        <path
            d="M212.05 183.231C212.001 183.231 211.954 183.231 211.904 183.241C211.643 183.291 205.452 184.528 198.973 190.022C188.181 199.173 185.329 212.809 184.838 222.639C184.819 223.015 185.108 223.332 185.483 223.352C185.494 223.352 185.507 223.352 185.518 223.352C185.878 223.352 186.178 223.068 186.195 222.705C186.672 213.168 189.419 199.942 199.796 191.104C205.554 186.2 211.212 184.787 212.052 184.598V183.229L212.05 183.231Z"
            fill="#172937" />
        <path
            d="M176.517 254.807C176.202 254.807 175.921 254.588 175.852 254.268C175.841 254.219 174.814 249.319 174.58 243.462C174.263 235.515 175.475 229.666 178.185 226.078C180.032 223.635 182.563 222.289 185.706 222.076C188.75 221.866 191.224 222.834 193.054 224.941C195.876 228.189 197.116 234.061 196.738 242.394C196.459 248.522 195.361 253.8 195.351 253.851C195.273 254.219 194.913 254.455 194.546 254.377C194.18 254.3 193.944 253.939 194.021 253.572C194.064 253.368 198.252 232.994 192.029 225.832C190.472 224.041 188.436 223.257 185.801 223.433C183.069 223.618 180.87 224.784 179.273 226.899C173.227 234.897 177.143 253.793 177.184 253.985C177.261 254.352 177.027 254.712 176.661 254.79C176.614 254.8 176.566 254.805 176.519 254.805L176.517 254.807Z"
            fill="#172937" />
        <path
            d="M254.774 186.301C248.675 180.671 242.788 178.277 242.54 178.178C242.465 178.148 242.385 178.135 242.31 178.133V179.559C243.539 180.1 248.699 182.531 253.889 187.334C259.323 192.362 265.907 201.103 266.424 214.198C266.439 214.566 266.739 214.851 267.103 214.851C267.112 214.851 267.123 214.851 267.131 214.851C267.507 214.836 267.798 214.52 267.783 214.145C267.247 200.562 260.412 191.506 254.774 186.299V186.301Z"
            fill="#172937" />
        <path
            d="M267.442 222.332C265.006 222.332 263.022 220.348 263.022 217.911C263.022 215.474 265.004 213.49 267.442 213.49C269.881 213.49 271.862 215.474 271.862 217.911C271.862 220.348 269.881 222.332 267.442 222.332ZM267.442 214.851C265.755 214.851 264.382 216.223 264.382 217.911C264.382 219.599 265.755 220.971 267.442 220.971C269.13 220.971 270.503 219.599 270.503 217.911C270.503 216.223 269.13 214.851 267.442 214.851Z"
            fill="#172937" />
        <path
            d="M237.27 219.506L223.324 202.181L243.282 185.232L237.27 219.506ZM225.216 202.359L236.449 216.315L241.291 188.704L225.214 202.357L225.216 202.359Z"
            fill="#172937" />
        <path
            d="M215.389 218.645L211.092 190.78L225.154 202.11L215.389 218.645ZM212.97 194.039L216.153 214.677L223.384 202.432L212.97 194.041V194.039Z"
            fill="#172937" />
        <path
            d="M225.289 281.341C224.918 281.341 224.613 281.042 224.609 280.669L223.588 202.28C223.584 201.904 223.884 201.595 224.259 201.591H224.268C224.639 201.591 224.943 201.889 224.948 202.263L225.969 280.652C225.973 281.027 225.673 281.337 225.297 281.341H225.289Z"
            fill="#172937" />
        <path
            d="M465.385 304.889C465.908 304.356 474.871 272.033 497.023 277.868C519.165 283.693 520.221 305.422 514.95 305.955C509.679 306.488 510.735 304.366 508.622 302.776C506.51 301.187 507.566 303.833 503.874 303.833C500.182 303.833 498.069 303.299 498.069 300.12C498.069 296.942 498.069 293.763 493.854 295.352C489.639 296.942 482.778 301.177 481.722 296.942C480.666 292.706 480.666 289.527 476.45 292.173C472.235 294.819 465.374 304.889 465.374 304.889H465.385Z"
            fill="#90E4E5" />
        <path
            d="M463.804 299.698C463.804 299.698 464.861 272.677 456.42 261.017C447.98 249.358 437.96 243 431.109 243C424.259 243 428.997 247.235 431.109 248.302C433.222 249.368 434.801 250.947 432.166 252.537C429.53 254.126 425.838 257.838 428.474 259.951C431.109 262.064 436.914 262.597 440.606 263.663C444.298 264.73 442.719 266.842 440.083 268.432C437.447 270.021 437.447 274.256 442.196 275.846C446.944 277.435 454.328 277.435 451.159 280.614C447.99 283.793 451.159 287.505 453.795 286.972C456.43 286.439 458.01 286.972 459.066 290.151C460.122 293.33 461.179 291.741 461.702 294.386C462.225 297.032 462.225 300.744 463.814 299.688L463.804 299.698Z"
            fill="#90E4E5" />
        <path
            d="M456.122 294.588C456.212 293.843 450.931 289.155 440.861 289.005C430.791 288.854 418.407 299.095 417.21 309.084C416.013 319.084 420.198 319.587 423.256 316.217C426.314 312.847 426.314 312.847 429.915 313.823C433.517 314.788 437.249 314.708 437.289 309.909C437.33 305.111 439.09 303.722 442.762 304.165C446.434 304.608 450.74 304.064 450.076 300.785C449.412 297.505 449.321 293.753 451.876 294.598C454.432 295.443 456.001 295.634 456.132 294.578L456.122 294.588Z"
            fill="#90E4E5" />
        <path d="M482.346 304.486H447.699V324.485H482.346V304.486Z" fill="white" />
        <path
            d="M461.021 304.577C460.709 298.903 457.017 295.231 455.81 295.231V294.487C457.661 294.487 461.433 298.732 461.755 304.527L461.021 304.567V304.577Z"
            fill="#90E4E5" />
        <path d="M463.923 295.212L463.189 295.235L463.486 304.496L464.22 304.472L463.923 295.212Z"
            fill="#90E4E5" />
    </g>
    <defs>
        <clipPath id="clip0_90_1513">
            <rect width="539" height="344" fill="white" />
        </clipPath>
    </defs>
</svg>
    