<svg width="431" height="520" viewBox="0 0 431 520" fill="none" xmlns="http://www.w3.org/2000/svg">
    <g clip-path="url(#clip0_90_1385)">
        <path
            d="M378.096 389.92H215.464C205.553 389.92 197.494 381.854 197.494 371.937V17.9826C197.494 8.06547 205.553 0 215.464 0H378.096C388.007 0 396.066 8.06547 396.066 17.9826V371.946C396.066 381.863 388.007 389.929 378.096 389.929V389.92ZM215.455 3.55201C207.503 3.55201 201.038 10.024 201.038 17.9737V371.937C201.038 379.887 207.503 386.359 215.455 386.359H378.087C386.039 386.359 392.504 379.887 392.504 371.937V17.9826C392.504 10.0329 386.039 3.56091 378.087 3.56091H215.455V3.55201Z"
            fill="white" />
        <path
            d="M367.846 20.0122H226.382C220.78 20.0122 216.239 24.5519 216.239 30.1519V319.761C216.239 325.361 220.78 329.901 226.382 329.901H367.846C373.448 329.901 377.989 325.361 377.989 319.761V30.1519C377.989 24.5519 373.448 20.0122 367.846 20.0122Z"
            fill="#AEE9FF" />
        <path
            d="M219.872 45.7578H137.564C133.485 45.7578 130.19 49.0517 130.19 53.1111V126.555C130.19 130.614 133.494 133.908 137.564 133.908H194.057L208.777 144.155C210.54 145.383 212.855 143.656 212.17 141.626L209.578 133.908H219.881C223.96 133.908 227.255 130.614 227.255 126.555V53.12C227.255 49.0606 223.951 45.7667 219.881 45.7667L219.872 45.7578Z"
            fill="white" />
        <path
            d="M172.774 65.5388H139.826C139.336 65.5388 138.935 65.1382 138.935 64.6574C138.935 64.1767 139.336 63.7761 139.826 63.7761H172.774C173.264 63.7761 173.665 64.1767 173.665 64.6574C173.665 65.1382 173.264 65.5388 172.774 65.5388Z"
            fill="#072636" />
        <path
            d="M217.602 78.1355H139.826C139.336 78.1355 138.935 77.7348 138.935 77.2541C138.935 76.7734 139.336 76.3728 139.826 76.3728H217.602C218.091 76.3728 218.492 76.7734 218.492 77.2541C218.492 77.7348 218.091 78.1355 217.602 78.1355Z"
            fill="#072636" />
        <path
            d="M217.602 90.7233H139.826C139.336 90.7233 138.935 90.3227 138.935 89.842C138.935 89.3613 139.336 88.9607 139.826 88.9607H217.602C218.091 88.9607 218.492 89.3613 218.492 89.842C218.492 90.3227 218.091 90.7233 217.602 90.7233Z"
            fill="#072636" />
        <path
            d="M217.602 103.32H139.826C139.336 103.32 138.935 102.919 138.935 102.439C138.935 101.958 139.336 101.557 139.826 101.557H217.602C218.091 101.557 218.492 101.958 218.492 102.439C218.492 102.919 218.091 103.32 217.602 103.32Z"
            fill="#072636" />
        <path
            d="M193.184 115.917H139.826C139.336 115.917 138.935 115.516 138.935 115.035C138.935 114.555 139.336 114.154 139.826 114.154H193.184C193.674 114.154 194.075 114.555 194.075 115.035C194.075 115.516 193.674 115.917 193.184 115.917Z"
            fill="#072636" />
        <path
            d="M350.036 225.228C349.626 222.325 347.756 219.824 345.085 218.604L301.13 197.105L272.501 200.639L246.747 206.675C245.047 207.361 243.426 208.233 241.921 209.266L216.141 229.403L192.089 248.187L180.512 195.182L148.989 208.037C148.989 208.037 162.498 298.956 169.577 310.52C176.657 322.084 190.165 316.948 190.165 316.948L216.15 297.007L224.904 290.285V329.776H225.198C225.554 329.812 225.919 329.838 226.293 329.838H367.837C368.211 329.838 368.576 329.812 368.932 329.776C372.664 329.375 375.789 326.954 377.187 323.633L350.045 225.236L350.036 225.228Z"
            fill="white" />
        <path
            d="M162.818 160.17C162.818 160.17 163.78 166.277 164.43 166.597C165 166.882 167.342 159.128 167.743 158.407C167.956 158.015 168.206 157.642 168.482 157.294C169.23 156.351 170.156 156.929 170.298 157.882C171.189 164.024 170.45 167.354 170.325 172.161C170.298 173.007 171.42 181.544 173.442 179.443C175.962 176.835 179.123 171.137 180.975 174.85C182.828 178.562 175.481 187.384 173.397 191.96C171.314 196.536 175.561 201.788 175.561 201.788C175.561 201.788 154.02 211.661 153.032 211.883C153.032 211.883 151.046 187.251 149.959 182.336C148.882 177.422 145.917 167.568 146.682 166.366C147.448 165.164 149.853 166.704 150.494 169.651C151.135 172.597 152.462 171.841 152.462 171.841C153.183 171.68 151.108 158.906 151.108 157.633C151.082 157.25 151.055 156.858 151.179 156.502C151.215 156.413 151.251 156.324 151.304 156.244C151.91 155.309 153.379 155.656 153.593 156.751C154.154 159.662 155.623 166.855 156.389 166.597C156.638 164.14 156.888 161.692 157.137 159.235C157.279 157.811 157.431 156.395 157.573 154.971C157.636 154.374 157.698 153.769 157.76 153.173C157.849 152.318 157.814 151.41 158.152 150.609C158.401 150.021 158.856 149.523 159.488 149.327C159.666 149.273 159.871 149.247 160.049 149.309C160.36 149.425 160.512 149.763 160.628 150.083C161.224 151.757 161.643 153.484 161.99 155.22C162.159 156.075 162.311 156.938 162.453 157.802C162.578 158.567 162.836 159.395 162.836 160.17H162.818Z"
            fill="#FF835C" />
        <path
            d="M246.186 131.575C243.025 143.852 244.744 158.79 246.783 169.873C247.985 176.398 249.909 183.618 254.504 188.648C256.552 190.891 259.019 192.61 261.957 193.464C263.017 193.776 272.501 194.693 272.501 193.25V203.853L284.077 213.174L301.121 198.716C301.121 198.716 301.121 172.428 301.121 172.375C301.121 172.375 302.617 171.636 302.733 171.573C303.49 171.2 303.989 170.701 304.55 170.051C305.752 168.671 306.722 167.104 307.453 165.431C308.61 162.778 309.153 159.84 308.958 156.947C308.815 154.793 308.085 151.223 305.618 150.52C306.072 150.644 306.054 134.558 305.876 133.018C305.013 125.655 303.009 117.839 297.034 112.907C292.163 108.884 285.537 107.619 279.224 107.664C269.117 107.735 258.547 111.198 252.18 119.041C249.303 122.593 247.389 126.884 246.178 131.567L246.186 131.575Z"
            fill="#FF835C" />
        <path
            d="M301.807 155.799C301.718 155.799 301.62 155.781 301.54 155.737C301.219 155.585 301.077 155.211 301.228 154.891C301.264 154.82 302.065 153.119 303.721 152.861C304.933 152.674 306.215 153.288 307.524 154.713C307.764 154.971 307.746 155.38 307.488 155.621C307.23 155.861 306.82 155.843 306.58 155.585C305.6 154.517 304.683 154.018 303.935 154.134C302.956 154.285 302.412 155.425 302.403 155.434C302.297 155.665 302.065 155.808 301.816 155.808L301.807 155.799Z"
            fill="#072636" />
        <path
            d="M301.451 167.238C301.237 167.238 301.023 167.131 300.899 166.936C300.712 166.633 300.801 166.241 301.103 166.054C303.686 164.461 304.924 161.977 304.781 158.674C304.674 156.128 303.757 154.027 303.748 154.009C303.606 153.689 303.748 153.306 304.078 153.164C304.398 153.021 304.781 153.164 304.924 153.493C304.968 153.582 308.931 162.734 301.78 167.149C301.673 167.211 301.558 167.247 301.442 167.247L301.451 167.238Z"
            fill="#072636" />
        <path
            d="M263.177 162.413C263.115 162.413 263.052 162.404 262.99 162.386C262.474 162.226 257.95 160.793 257.104 158.345C256.828 157.543 256.97 156.716 257.505 155.941C259.66 152.87 262.527 140.861 262.554 140.745C262.634 140.398 262.981 140.184 263.329 140.264C263.676 140.344 263.89 140.691 263.809 141.039C263.694 141.546 260.862 153.404 258.564 156.68C258.262 157.116 258.181 157.517 258.324 157.926C258.858 159.484 262.153 160.793 263.373 161.158C263.711 161.265 263.907 161.621 263.8 161.959C263.72 162.235 263.462 162.413 263.186 162.413H263.177Z"
            fill="#072636" />
        <path
            d="M274.112 145.392C275.18 145.392 276.045 144.527 276.045 143.46C276.045 142.393 275.18 141.528 274.112 141.528C273.045 141.528 272.18 142.393 272.18 143.46C272.18 144.527 273.045 145.392 274.112 145.392Z"
            fill="#072636" />
        <path
            d="M254.486 145.392C255.553 145.392 256.418 144.527 256.418 143.46C256.418 142.393 255.553 141.528 254.486 141.528C253.419 141.528 252.554 142.393 252.554 143.46C252.554 144.527 253.419 145.392 254.486 145.392Z"
            fill="#072636" />
        <path
            d="M267.256 171.814C262.358 171.814 258.493 169.17 258.306 169.045C258.012 168.84 257.941 168.44 258.146 168.155C258.351 167.861 258.751 167.79 259.036 167.995C259.081 168.03 263.988 171.36 269.411 170.336C272.652 169.731 275.457 167.701 277.755 164.309C277.95 164.015 278.351 163.935 278.645 164.14C278.939 164.336 279.019 164.737 278.814 165.03C276.321 168.725 273.231 170.932 269.633 171.609C268.823 171.76 268.021 171.823 267.247 171.823L267.256 171.814Z"
            fill="#072636" />
        <path
            d="M247.789 126.662C247.789 126.662 255.768 129.003 263.168 126.751C270.568 124.498 291.157 120.964 290.186 126.751C289.224 132.537 286.001 157.917 291.798 155.665C297.595 153.413 296.945 148.917 305.627 150.529C305.627 150.529 309.812 135.751 308.842 121.934C307.88 108.118 288.574 101.691 268.636 104.263C248.689 106.836 236.151 102.981 237.433 112.614C238.715 122.246 241.734 125.602 247.78 126.653L247.789 126.662Z"
            fill="#072636" />
        <path
            d="M260.328 141.404L259.544 140.389C260.764 139.445 263.783 138.243 266.499 140.389L265.697 141.395C263.106 139.338 260.443 141.315 260.336 141.395L260.328 141.404Z"
            fill="#FBFBDC" />
        <path
            d="M272.501 203.862C272.501 203.862 287.942 195.512 289.545 186.832C289.545 186.832 277.318 193.9 272.501 193.259V203.862Z"
            fill="#072636" />
        <path d="M282.843 143.134L282.712 144.409L299.924 146.175L300.055 144.9L282.843 143.134Z"
            fill="#FBFBDC" />
        <path
            d="M274.112 152.941C269.054 152.941 264.949 148.837 264.949 143.789C264.949 138.742 269.063 134.638 274.112 134.638C279.162 134.638 283.276 138.742 283.276 143.789C283.276 148.837 279.162 152.941 274.112 152.941ZM274.112 135.911C269.767 135.911 266.232 139.445 266.232 143.781C266.232 148.116 269.767 151.65 274.112 151.65C278.458 151.65 281.993 148.116 281.993 143.781C281.993 139.445 278.458 135.911 274.112 135.911Z"
            fill="#FBFBDC" />
        <path
            d="M251.912 152.941C246.854 152.941 242.749 148.837 242.749 143.789C242.749 138.742 246.863 134.638 251.912 134.638C256.962 134.638 261.076 138.742 261.076 143.789C261.076 148.837 256.962 152.941 251.912 152.941ZM251.912 135.911C247.567 135.911 244.031 139.445 244.031 143.781C244.031 148.116 247.567 151.65 251.912 151.65C256.258 151.65 259.793 148.116 259.793 143.781C259.793 139.445 256.258 135.911 251.912 135.911Z"
            fill="#FBFBDC" />
        <path
            d="M281.664 135.11C281.415 135.11 281.174 135.048 280.943 134.914C273.587 130.677 268.306 134.629 268.084 134.798C267.452 135.288 266.543 135.172 266.053 134.549C265.564 133.926 265.671 133.018 266.294 132.528C266.579 132.306 273.284 127.16 282.385 132.412C283.08 132.813 283.311 133.694 282.919 134.389C282.652 134.852 282.163 135.11 281.664 135.11Z"
            fill="#072636" />
        <path
            d="M257.861 135.11C257.612 135.11 257.371 135.048 257.14 134.914C249.784 130.677 244.503 134.629 244.281 134.798C243.649 135.288 242.74 135.172 242.25 134.549C241.761 133.926 241.868 133.018 242.491 132.528C242.776 132.306 249.481 127.16 258.582 132.412C259.277 132.813 259.508 133.694 259.116 134.389C258.849 134.852 258.36 135.11 257.861 135.11Z"
            fill="#072636" />
        <path d="M272.501 203.862L285.048 290.277L301.13 198.717L284.086 213.174L272.501 203.862Z"
            fill="#1D5E93" />
        <path
            d="M289.554 299.597C289.465 299.597 289.376 299.579 289.295 299.544C288.975 299.401 288.823 299.019 288.975 298.698L313.268 244.421L305.823 234.281L318.192 231.682L302.822 201.912C302.662 201.601 302.786 201.209 303.098 201.049C303.41 200.889 303.802 201.013 303.962 201.325L320.107 232.599L308.031 235.136L314.737 244.27L290.141 299.223C290.035 299.464 289.803 299.606 289.554 299.606V299.597Z"
            fill="#072636" />
        <path
            d="M280.862 299.597C280.595 299.597 280.337 299.428 280.248 299.161L259.232 235.866L265.706 227.64H256.579L270.978 203.221C271.156 202.918 271.557 202.812 271.859 202.99C272.162 203.168 272.269 203.559 272.091 203.871L258.832 226.358H268.36L260.675 236.124L281.477 298.76C281.593 299.099 281.406 299.464 281.067 299.571C280.996 299.597 280.934 299.606 280.862 299.606V299.597Z"
            fill="#072636" />
        <path
            d="M285.689 329.767V287.383C285.689 287.027 285.404 286.742 285.048 286.742C284.692 286.742 284.407 287.027 284.407 287.383V329.767H285.689Z"
            fill="#072636" />
        <path
            d="M194.342 273.255C194.342 273.255 194.315 273.255 194.306 273.255C193.95 273.238 193.683 272.935 193.701 272.579C194.333 261.869 191.492 248.471 191.466 248.338C191.394 247.991 191.608 247.652 191.964 247.572C192.311 247.501 192.65 247.724 192.73 248.062C192.757 248.196 195.633 261.763 194.992 272.65C194.974 272.988 194.689 273.255 194.351 273.255H194.342Z"
            fill="#072636" />
        <path d="M150.396 217.296L182.4 203.862L180.504 195.182L148.98 208.037L150.396 217.296Z"
            fill="#1D5E93" />
        <path
            d="M153.326 224.934C153.067 224.934 152.827 224.783 152.729 224.533C152.595 224.204 152.756 223.83 153.085 223.696L182.195 211.972C182.525 211.839 182.899 211.999 183.033 212.328C183.166 212.658 183.006 213.032 182.676 213.165L153.566 224.889C153.486 224.925 153.406 224.934 153.326 224.934Z"
            fill="#072636" />
        <path
            d="M179.221 211.251C178.153 211.251 177.289 210.388 177.289 209.319C177.289 208.251 178.153 207.387 179.221 207.387C180.29 207.387 181.154 208.251 181.154 209.319C181.154 210.388 180.29 211.251 179.221 211.251ZM179.221 208.678C178.865 208.678 178.58 208.963 178.58 209.319C178.58 209.675 178.865 209.96 179.221 209.96C179.577 209.96 179.862 209.675 179.862 209.319C179.862 208.963 179.577 208.678 179.221 208.678Z"
            fill="#072636" />
        <path
            d="M159.274 185.39C159.007 185.39 158.793 185.176 158.793 184.909C158.793 178.224 164.528 176.123 164.581 176.105C164.831 176.016 165.107 176.149 165.196 176.399C165.285 176.648 165.151 176.924 164.902 177.013C164.688 177.093 159.755 178.918 159.755 184.909C159.755 185.176 159.541 185.39 159.274 185.39Z"
            fill="#072636" />
        <path
            d="M339.653 329.767L332.493 265.626C332.458 265.27 332.137 265.021 331.781 265.056C331.425 265.092 331.175 265.412 331.211 265.769L338.353 329.767H339.644H339.653Z"
            fill="#072636" />
        <path
            d="M272.518 195.182C272.474 195.182 272.429 195.182 272.376 195.191C272.127 195.236 266.267 196.411 260.141 201.601C249.927 210.245 247.228 223.136 246.765 232.421C246.747 232.777 247.024 233.079 247.38 233.097C247.389 233.097 247.398 233.097 247.415 233.097C247.754 233.097 248.039 232.83 248.057 232.483C248.511 223.474 251.111 210.975 260.924 202.625C266.374 197.987 271.726 196.66 272.518 196.482V195.191V195.182Z"
            fill="#072636" />
        <path
            d="M238.893 262.813C238.599 262.813 238.332 262.608 238.261 262.306C238.252 262.261 237.282 257.632 237.059 252.095C236.756 244.59 237.905 239.062 240.47 235.67C242.215 233.364 244.61 232.091 247.585 231.886C250.461 231.691 252.803 232.599 254.539 234.593C257.211 237.664 258.386 243.21 258.021 251.089C257.754 256.875 256.721 261.86 256.712 261.914C256.641 262.261 256.294 262.484 255.946 262.412C255.599 262.341 255.376 262.003 255.448 261.656C255.492 261.46 259.455 242.213 253.56 235.447C252.09 233.756 250.158 233.017 247.665 233.177C245.082 233.355 242.999 234.45 241.485 236.453C235.768 244.011 239.472 261.86 239.508 262.047C239.579 262.395 239.356 262.733 239.009 262.813C238.965 262.822 238.92 262.831 238.876 262.831L238.893 262.813Z"
            fill="#072636" />
        <path
            d="M312.947 198.084C307.177 192.761 301.602 190.5 301.371 190.411C301.299 190.384 301.228 190.366 301.157 190.366V191.71C302.323 192.218 307.203 194.515 312.11 199.055C317.248 203.809 323.482 212.061 323.971 224.435C323.989 224.782 324.274 225.049 324.612 225.049C324.612 225.049 324.63 225.049 324.639 225.049C324.995 225.032 325.271 224.738 325.254 224.382C324.746 211.554 318.281 202.99 312.947 198.076V198.084Z"
            fill="#072636" />
        <path
            d="M324.933 232.127C322.627 232.127 320.748 230.257 320.748 227.952C320.748 225.646 322.627 223.777 324.933 223.777C327.239 223.777 329.118 225.646 329.118 227.952C329.118 230.257 327.239 232.127 324.933 232.127ZM324.933 225.059C323.339 225.059 322.039 226.358 322.039 227.952C322.039 229.545 323.339 230.845 324.933 230.845C326.527 230.845 327.827 229.545 327.827 227.952C327.827 226.358 326.527 225.059 324.933 225.059Z"
            fill="#072636" />
        <path
            d="M296.384 229.456L283.187 213.085L302.074 197.07L296.384 229.456ZM284.976 213.254L295.609 226.438L300.195 200.355L284.985 213.254H284.976Z"
            fill="#072636" />
        <path
            d="M275.68 228.646L271.61 202.322L284.914 213.023L275.671 228.646H275.68ZM273.391 205.402L276.401 224.898L283.24 213.325L273.382 205.393L273.391 205.402Z"
            fill="#072636" />
        <path
            d="M285.048 287.882C284.7 287.882 284.407 287.597 284.407 287.25L283.445 213.183C283.445 212.827 283.721 212.533 284.077 212.533C284.424 212.533 284.718 212.818 284.718 213.165L285.68 287.232C285.68 287.588 285.404 287.882 285.048 287.882Z"
            fill="#072636" />
        <path
            d="M60.5003 500.201L59.7523 509.397L65.2288 513.626L71.9431 510.341L72.6555 500.13L60.5003 500.201Z"
            fill="#FF8559" />
        <path
            d="M59.7523 509.397L59.0755 518.104L83.4484 520L71.9432 510.341L65.0596 513.608L59.7523 509.397Z"
            fill="#072636" />
        <path
            d="M78.2835 242.409L77.7581 254.249L94.2055 254.472C94.2055 254.472 94.1699 243.976 94.2055 244.634C94.2412 245.293 104.891 247.207 105.025 239.329C105.15 232.127 104.544 232.145 104.544 232.145L108.329 228.904C108.961 228.361 108.961 227.4 108.338 226.848L103.939 223.002C104.687 216.138 104.09 207.922 96.8592 204.975C92.6026 203.239 87.7227 203.061 83.3415 204.494C73.7687 207.619 67.6421 218.453 70.3046 228.263C71.6938 233.382 74.7571 238.474 78.2746 242.418L78.2835 242.409Z"
            fill="#FF8559" />
        <path
            d="M78.2835 242.409C78.2835 242.409 79.548 231.842 79.548 231.833C79.5569 231.726 78.8712 231.148 78.8 231.05C78.2746 230.435 77.8026 229.75 77.4731 229.002C76.9121 227.72 77.019 226.047 77.6601 224.818C78.3013 223.59 79.8151 222.886 81.1509 223.527C81.7653 223.821 82.2284 224.337 82.7983 224.702C84.045 225.486 85.7369 225.584 87.046 224.916C87.8029 224.524 88.4262 223.919 89.0763 223.376C91.0799 221.711 93.4664 220.616 95.6304 219.192C97.6073 217.901 99.6109 216.343 101.018 214.438C101.873 213.281 102.487 211.936 102.621 210.494C102.621 210.494 101.232 202.188 91.3738 202.188C81.516 202.188 73.3501 207.975 71.0349 212.72C71.0349 212.72 62.2635 208.856 60.2064 215.266C58.4165 220.839 62.4861 227.177 67.8024 223.429C67.8024 223.429 66.4488 232.705 78.2657 242.418L78.2835 242.409Z"
            fill="#072636" />
        <path
            d="M101.632 223.803C102.173 223.803 102.612 223.365 102.612 222.824C102.612 222.283 102.173 221.845 101.632 221.845C101.091 221.845 100.653 222.283 100.653 222.824C100.653 223.365 101.091 223.803 101.632 223.803Z"
            fill="#072636" />
        <path
            d="M94.2145 232.821C95.8424 232.821 97.162 231.502 97.162 229.875C97.162 228.247 95.8424 226.928 94.2145 226.928C92.5866 226.928 91.2669 228.247 91.2669 229.875C91.2669 231.502 92.5866 232.821 94.2145 232.821Z"
            fill="#FF6940" />
        <path
            d="M89.1921 223.153L89.1119 222.833C92.0862 222.058 96.1647 220.518 98.6669 217.643C100.154 215.925 100.386 214.527 100.386 214.509L100.715 214.554C100.715 214.616 100.484 216.049 98.943 217.83C96.3873 220.785 92.2376 222.352 89.201 223.144L89.1921 223.153Z"
            fill="#072636" />
        <path
            d="M103.787 236.845C100.893 237.032 99.8068 234.557 99.789 234.53C99.7177 234.361 99.789 234.165 99.9671 234.094C100.136 234.023 100.332 234.094 100.403 234.272C100.448 234.388 101.614 236.979 104.936 235.955C105.114 235.901 105.292 235.999 105.346 236.168C105.399 236.346 105.301 236.525 105.123 236.578C104.642 236.729 104.188 236.809 103.778 236.836L103.787 236.845Z"
            fill="#072636" />
        <path d="M94.2412 251.338L90.4477 242.498L94.2056 244.635L94.2412 251.338Z" fill="#FF4800" />
        <path
            d="M81.2132 229.403C81.1687 229.403 81.1242 229.403 81.0797 229.403C80.5632 229.394 80.1535 229.109 79.9754 228.646C79.7795 228.156 79.9309 227.578 80.0823 227.186C80.1535 227.017 80.3405 226.937 80.5097 226.999C80.6789 227.07 80.7591 227.257 80.6967 227.426C80.5365 227.827 80.5008 228.174 80.5899 228.406C80.6967 228.682 80.9283 228.744 81.0975 228.744C81.4269 228.753 81.7653 228.557 81.89 228.281C82.0147 227.996 82.0325 227.631 81.9434 227.142C81.8455 226.599 81.6852 226.242 81.4358 226.02C80.857 225.495 79.6371 225.477 79.0315 225.984C78.5506 226.385 78.6664 227.079 78.7376 227.364C78.7822 227.542 78.6753 227.72 78.4972 227.765C78.3191 227.809 78.141 227.702 78.0965 227.524C77.8828 226.688 78.0787 225.922 78.613 225.477C79.4679 224.765 81.0618 224.791 81.89 225.53C82.2551 225.86 82.4777 226.331 82.6113 227.026C82.6825 227.426 82.7538 228.014 82.5044 228.557C82.2907 229.029 81.7742 229.367 81.231 229.403H81.2132Z"
            fill="#072636" />
        <path
            d="M71.017 215.871C71.017 215.871 70.9725 215.871 70.9547 215.871C70.8657 215.845 70.8211 215.747 70.8479 215.667C72.2905 211.135 68.0072 209.052 67.8291 208.972C67.7489 208.936 67.7133 208.838 67.7489 208.749C67.7846 208.669 67.8825 208.634 67.9716 208.669C68.0161 208.696 72.7001 210.957 71.1684 215.764C71.1506 215.827 71.0883 215.871 71.026 215.88L71.017 215.871Z"
            fill="#072636" />
        <path
            d="M97.7319 221.702C97.6696 221.702 97.6162 221.702 97.5538 221.667C97.3935 221.586 97.3312 221.382 97.4113 221.221C99.1211 217.954 102.38 218.586 102.407 218.595C102.585 218.631 102.701 218.809 102.665 218.987C102.63 219.165 102.452 219.281 102.273 219.245C102.158 219.218 99.4684 218.72 97.9991 221.533C97.9456 221.64 97.8388 221.702 97.7319 221.711V221.702Z"
            fill="#072636" />
        <path
            d="M67.366 252.13C67.366 252.13 90.038 246.059 100.35 253.163C110.662 260.267 114.206 282.718 114.206 282.718L97.0284 285.834L112.007 321.844C112.007 321.844 96.0934 326.535 83.0744 327.39C72.6912 328.076 59.9304 325.449 59.9304 325.449C59.9304 325.449 63.9287 305.971 63.7951 301.404C63.6615 296.837 60.3845 284.944 60.3845 284.944L45.1838 270.683C45.1838 270.683 60.999 253.385 67.366 252.112V252.13Z"
            fill="white" />
        <path
            d="M97.064 285.808C97.064 285.808 97.5894 320.259 111.757 319.903C125.925 319.547 134.322 280.164 134.322 280.164C134.322 280.164 132.924 277.796 134.073 276.487C135.222 275.178 140.894 268.012 137.653 265.769C134.411 263.525 127.127 265.261 127.466 270.166C127.804 275.071 127.483 279.407 127.483 279.407L115.72 296.846L114.135 282.79L97.064 285.808Z"
            fill="#FF8559" />
        <path
            d="M46.2434 271.528L25.6285 295.191C25.6285 295.191 24.5421 301.209 30.072 304.805C35.602 308.402 57.2144 319.69 57.2144 319.69C57.2144 319.69 57.0452 324.657 59.9126 325.458L62.1388 312.675L43.3315 297.648L58.7816 283.573L46.2256 271.52L46.2434 271.528Z"
            fill="#FF8559" />
        <path
            d="M97.064 286.333C96.9127 286.342 96.7613 286.244 96.7257 286.092L92.7541 271.154C92.7095 270.976 92.8164 270.798 92.9856 270.754C93.1637 270.709 93.3418 270.816 93.3863 270.985L97.3579 285.923C97.4024 286.101 97.2956 286.279 97.1264 286.324C97.1086 286.324 97.0819 286.333 97.064 286.333Z"
            fill="#072636" />
        <path
            d="M63.8931 301.663C63.7328 301.672 63.5814 301.565 63.5458 301.404L58.4967 277.787C58.4611 277.609 58.5768 277.431 58.7549 277.395C58.933 277.359 59.1111 277.466 59.1467 277.644L64.1958 301.262C64.2315 301.44 64.1157 301.618 63.9376 301.654C63.9198 301.654 63.902 301.654 63.8931 301.654V301.663Z"
            fill="#072636" />
        <path
            d="M59.9304 325.467C59.9304 325.467 56.0834 350.919 59.3248 368.35C62.5573 385.78 66.9564 422.751 65.0062 429.615C63.056 436.479 59.868 447.117 56.2971 502.605L77.3129 503.023L92.9321 410.84C92.8698 409.736 94.0809 435.713 94.9269 448.372C95.7906 461.218 99.5485 499.667 99.5485 499.667L120.03 496.578C120.03 496.578 117.813 393.098 117.447 378.819C117.082 364.539 112.007 321.853 112.007 321.853L59.9304 325.467Z"
            fill="#1D5E93" />
        <path
            d="M114.785 301.431C114.785 301.431 114.74 301.431 114.714 301.431C114.58 301.396 114.5 301.271 114.527 301.137L115.56 296.775C115.595 296.642 115.729 296.562 115.854 296.588C115.987 296.624 116.067 296.749 116.041 296.882L115.008 301.244C114.981 301.351 114.892 301.431 114.785 301.431Z"
            fill="#072636" />
        <path d="M113.82 365.28L113.491 365.285L115.397 489.386L115.727 489.381L113.82 365.28Z"
            fill="#53A6C6" />
        <path
            d="M73.2433 492.216L72.9227 492.154C73.0474 491.504 85.4965 426.935 86.859 415.416C88.2214 403.914 86.1377 376.023 86.1198 375.738L86.4493 375.712C86.4671 375.997 88.5509 403.914 87.1884 415.451C85.826 426.98 73.3769 491.557 73.2522 492.207L73.2433 492.216Z"
            fill="#53A6C6" />
        <path
            d="M93.8939 431.671C93.8939 431.671 93.8761 431.671 93.8672 431.671C93.6891 431.671 93.5377 431.52 93.5377 431.333C93.5377 431.209 93.698 418.861 92.6828 410.956C91.7389 403.585 93.3596 378.943 93.6267 375.08C86.6096 377.563 78.6397 374.732 78.3013 374.608C78.1321 374.545 78.0431 374.359 78.1054 374.189C78.1677 374.02 78.3547 373.931 78.5328 373.994C78.613 374.02 86.9836 376.994 93.885 374.287L94.3748 374.1L94.3391 374.626C94.3213 374.911 92.3444 402.979 93.3596 410.885C94.3836 418.843 94.2234 431.235 94.2234 431.36C94.2234 431.529 94.0898 431.671 93.9117 431.68L93.8939 431.671Z"
            fill="#072636" />
        <path
            d="M104.108 498.982L104.687 508.178L110.706 511.587L116.886 507.376L116.121 497.166L104.108 498.982Z"
            fill="#FF8559" />
        <path
            d="M104.687 508.178L105.266 516.902L129.665 515.282L116.886 507.376L110.546 511.596L104.687 508.178Z"
            fill="#072636" />
        <path
            d="M64.6856 141.849H18.2374C16.5554 141.849 15.1919 143.212 15.1919 144.893V191.328C15.1919 193.009 16.5554 194.372 18.2374 194.372H64.6856C66.3676 194.372 67.7311 193.009 67.7311 191.328V144.893C67.7311 143.212 66.3676 141.849 64.6856 141.849Z"
            fill="white" />
        <path
            d="M45.4153 156.057H21.4788C20.989 156.057 20.5883 155.656 20.5883 155.167C20.5883 154.677 20.989 154.277 21.4788 154.277H45.4153C45.9051 154.277 46.3058 154.677 46.3058 155.167C46.3058 155.656 45.9051 156.057 45.4153 156.057Z"
            fill="#072636" />
        <path
            d="M61.0969 168.734H21.4788C20.989 168.734 20.5883 168.333 20.5883 167.844C20.5883 167.354 20.989 166.953 21.4788 166.953H61.0969C61.5867 166.953 61.9874 167.354 61.9874 167.844C61.9874 168.333 61.5867 168.734 61.0969 168.734Z"
            fill="#072636" />
        <path
            d="M50.7583 181.402H21.4788C20.989 181.402 20.5883 181.001 20.5883 180.512C20.5883 180.022 20.989 179.621 21.4788 179.621H50.7583C51.248 179.621 51.6488 180.022 51.6488 180.512C51.6488 181.001 51.248 181.402 50.7583 181.402Z"
            fill="#072636" />
        <path
            d="M364.756 407.6C364.756 407.6 343.749 355.664 376.876 356.474C410.002 357.284 376.876 397.051 364.756 407.6Z"
            fill="#90E4E5" />
        <path
            d="M358.3 444.927C358.763 444.927 359.449 444.357 359.823 444.144C360.971 443.485 362.111 442.79 363.251 442.096C366.475 440.138 369.672 438.135 372.868 436.132C374.934 434.832 377.098 433.603 379.102 432.215C382.165 430.087 386.627 427.167 390.545 428.52C392.637 429.241 394.08 431.404 394.205 433.621C394.329 435.838 393.27 438.037 391.622 439.523C388.764 442.114 384.543 442.372 380.892 442.871C377.241 443.369 373.67 443.725 370.046 444.046C366.172 444.393 362.191 444.927 358.291 444.927H358.3Z"
            fill="#90E4E5" />
        <path
            d="M340.526 435.188C341.398 432.704 342.307 430.247 343.064 427.737C343.838 425.155 344.702 422.458 346.536 420.419C348.772 417.953 352.725 416.983 355.139 419.796C356.403 421.274 356.777 423.419 356.287 425.306C355.228 429.357 350.775 431.511 347.24 432.98C345.708 433.621 344.141 434.164 342.556 434.636C342.36 434.698 340.588 435.001 340.526 435.188Z"
            fill="#90E4E5" />
        <path
            d="M337.293 424.639L335.681 382.442C335.681 382.442 334.871 375.142 325.182 375.952C315.485 376.762 317.907 386.501 317.907 386.501L337.302 424.639H337.293Z"
            fill="#90E4E5" />
        <path
            d="M352.966 469.337L352.316 469.204L364.435 407.529L375.763 356.002L376.413 356.145L365.086 407.671L352.966 469.337Z"
            fill="#072636" />
        <path
            d="M342.752 443.476C339.591 441.384 336.438 439.265 333.259 437.191C330.962 435.695 328.611 433.283 325.788 432.953C324.408 432.793 323.001 433.185 321.763 433.808C320.579 434.404 319.483 435.25 318.806 436.399C317.079 439.31 319.412 444.713 323.125 444.509L342.752 443.467V443.476Z"
            fill="#90E4E5" />
        <path d="M373.599 368.145L373.403 367.513L386.146 363.596L386.342 364.237L373.599 368.145Z"
            fill="#072636" />
        <path d="M371.096 378.204L361.844 372.044L362.209 371.483L371.461 377.652L371.096 378.204Z"
            fill="#072636" />
        <path d="M368.683 390.685L368.407 390.08L379.85 384.801L380.126 385.406L368.683 390.685Z"
            fill="#072636" />
        <path d="M358.407 445.239L358.184 444.616L392.379 432.651L392.602 433.283L358.407 445.239Z"
            fill="#072636" />
        <path d="M384.169 436.105L383.554 435.864L385.932 429.704L386.546 429.944L384.169 436.105Z"
            fill="#072636" />
        <path d="M381.444 441.126L375.976 439.265L376.19 438.633L381.658 440.494L381.444 441.126Z"
            fill="#072636" />
        <path d="M327.133 388.442L326.607 388.042L332.075 380.973L332.6 381.383L327.133 388.442Z"
            fill="#072636" />
        <path d="M329.537 397.674L325.129 394.798L325.485 394.238L329.893 397.113L329.537 397.674Z"
            fill="#072636" />
        <path d="M332.645 405.632L332.03 405.374L334.372 399.882L334.987 400.14L332.645 405.632Z"
            fill="#072636" />
        <path d="M340.766 435.411L340.276 434.965L351.621 422.538L352.111 422.992L340.766 435.411Z"
            fill="#072636" />
        <path d="M348.537 426.337L348.53 427.004L353.454 427.059L353.461 426.392L348.537 426.337Z"
            fill="#072636" />
        <path d="M345.297 425.901L345.096 429.822L345.754 429.856L345.955 425.935L345.297 425.901Z"
            fill="#072636" />
        <path d="M350.766 470.726L324.203 379.7L324.844 379.513L351.407 470.539L350.766 470.726Z"
            fill="#072636" />
        <path d="M342.672 443.805L320.935 438.393L321.086 437.743L342.832 443.155L342.672 443.805Z"
            fill="#072636" />
        <path d="M327.141 439.773L325.77 435.419L326.402 435.224L327.774 439.568L327.141 439.773Z"
            fill="#072636" />
        <path d="M330.223 443.405L329.76 442.924L332.11 440.645L332.565 441.126L330.223 443.405Z"
            fill="#072636" />
        <path d="M367.988 469.275H335.672V518.024H367.988V469.275Z" fill="white" />
        <path d="M303.659 474.216H139.808V475.996H303.659V474.216Z" fill="white" />
        <path d="M45.4153 474.216H0V475.996H45.4153V474.216Z" fill="white" />
        <path d="M431 474.216H385.585V475.996H431V474.216Z" fill="white" />
    </g>
    <defs>
        <clipPath id="clip0_90_1385">
            <rect width="431" height="520" fill="white" />
        </clipPath>
    </defs>
</svg>
    