<svg width="411" height="379" viewBox="0 0 411 379" fill="none" xmlns="http://www.w3.org/2000/svg">
<path d="M303.894 161.052H97.5298C89.1755 161.052 82.4029 167.824 82.4029 176.179V325.089C82.4029 333.444 89.1755 340.216 97.5298 340.216H303.894C312.249 340.216 319.021 333.444 319.021 325.089V176.179C319.021 167.824 312.249 161.052 303.894 161.052Z" fill="#AEE9FF"/>
<path d="M27.9396 7.3783H137.744C141.411 7.3783 144.389 10.3568 144.389 14.0233V64.1062C144.389 69.5114 139.997 73.9036 134.592 73.9036H27.9396C22.5344 73.9036 18.1422 69.5114 18.1422 64.1062V17.1757C18.1422 11.7705 22.5344 7.3783 27.9396 7.3783Z" fill="white"/>
<path d="M98.2761 23.1856H78.3563C77.9405 23.1856 77.6003 22.8455 77.6003 22.4297C77.6003 22.0139 77.9405 21.6737 78.3563 21.6737H98.2761C98.6918 21.6737 99.032 22.0139 99.032 22.4297C99.032 22.8455 98.6918 23.1856 98.2761 23.1856Z" fill="#072636"/>
<path d="M134.237 32.2649H78.3636C77.9478 32.2649 77.6076 31.9247 77.6076 31.5089C77.6076 31.0931 77.9478 30.7529 78.3636 30.7529H134.237C134.653 30.7529 134.993 31.0931 134.993 31.5089C134.993 31.9247 134.653 32.2649 134.237 32.2649Z" fill="#072636"/>
<path d="M134.237 41.3369H78.3636C77.9478 41.3369 77.6076 40.9967 77.6076 40.5809C77.6076 40.1651 77.9478 39.825 78.3636 39.825H134.237C134.653 39.825 134.993 40.1651 134.993 40.5809C134.993 40.9967 134.653 41.3369 134.237 41.3369Z" fill="#072636"/>
<path d="M134.237 59.4872H78.3636C77.9478 59.4872 77.6076 59.147 77.6076 58.7312C77.6076 58.3154 77.9478 57.9752 78.3636 57.9752H134.237C134.653 57.9752 134.993 58.3154 134.993 58.7312C134.993 59.147 134.653 59.4872 134.237 59.4872Z" fill="#072636"/>
<path d="M68.9667 31.6448C65.8219 20.7966 57.166 22.4522 52.1237 24.5009C49.7046 25.4836 46.9831 25.4836 44.564 24.5009C39.5217 22.4446 30.8659 20.7891 27.721 31.6448C24.5913 42.44 35.5378 51.9199 42.6666 56.7808C46.0835 59.1092 50.5967 59.1092 54.0137 56.7808C61.1424 51.9199 72.0813 42.44 68.9592 31.6448H68.9667Z" fill="#EE4B64"/>
<path d="M48.1323 45.0029C47.4444 45.0029 46.8547 44.5418 46.7035 43.869L44.5339 34.5403L42.712 38.3353C42.4701 38.8418 41.9485 39.1669 41.3891 39.1669H36.8155V36.9292H40.8977L43.4529 31.5921C43.725 31.0326 44.3222 30.7 44.9421 30.7681C45.562 30.8361 46.0761 31.2897 46.2122 31.8944L48.0719 39.8775L48.9563 35.4021C49.0848 34.752 49.614 34.2833 50.2717 34.2228C50.937 34.1699 51.5342 34.5403 51.7685 35.1527L53.152 38.6982H61.3693V40.9358H52.6228C52.0105 40.9358 51.4737 40.5654 51.2545 39.9984L50.6422 38.426L49.5762 43.8161C49.4402 44.504 48.8581 44.9878 48.155 44.9954C48.1474 44.9954 48.1399 44.9954 48.1323 44.9954V45.0029Z" fill="white"/>
<path d="M303.173 58.9958H397.435C401.321 58.9958 404.473 62.1482 404.473 66.0339V108.134C404.473 113.554 400.073 117.961 394.645 117.961H303.166C297.745 117.961 293.338 113.562 293.338 108.134V68.8159C293.338 63.3956 297.738 58.9883 303.166 58.9883L303.173 58.9958Z" fill="white"/>
<path d="M359.902 71.8612H342.356C341.94 71.8612 341.6 71.521 341.6 71.1052C341.6 70.6894 341.94 70.3492 342.356 70.3492H359.902C360.318 70.3492 360.658 70.6894 360.658 71.1052C360.658 71.521 360.318 71.8612 359.902 71.8612Z" fill="#072636"/>
<path d="M391.569 79.8592H342.356C341.94 79.8592 341.6 79.519 341.6 79.1033C341.6 78.6875 341.94 78.3473 342.356 78.3473H391.569C391.985 78.3473 392.325 78.6875 392.325 79.1033C392.325 79.519 391.985 79.8592 391.569 79.8592Z" fill="#072636"/>
<path d="M391.569 87.8495H342.356C341.94 87.8495 341.6 87.5093 341.6 87.0935C341.6 86.6777 341.94 86.3375 342.356 86.3375H391.569C391.985 86.3375 392.325 86.6777 392.325 87.0935C392.325 87.5093 391.985 87.8495 391.569 87.8495Z" fill="#072636"/>
<path d="M391.569 103.831H342.356C341.94 103.831 341.6 103.491 341.6 103.075C341.6 102.659 341.94 102.319 342.356 102.319H391.569C391.985 102.319 392.325 102.659 392.325 103.075C392.325 103.491 391.985 103.831 391.569 103.831Z" fill="#072636"/>
<path d="M325.1 108.035H312.642C309.406 108.035 306.776 105.382 306.776 102.116V80.9867C306.776 76.5492 310.351 72.9432 314.744 72.9432H322.999C327.391 72.9432 330.967 76.5492 330.967 80.9867V102.116C330.967 105.382 328.336 108.035 325.1 108.035ZM314.744 74.4476C311.175 74.4476 308.272 77.3808 308.272 80.9792V102.109C308.272 104.543 310.23 106.516 312.642 106.516H325.1C327.512 106.516 329.47 104.535 329.47 102.109V80.9792C329.47 77.3732 326.567 74.4476 322.999 74.4476H314.744Z" fill="#072636"/>
<path d="M327.104 82.6113H310.631V97.0655H327.104V82.6113Z" fill="#1F6F93"/>
<path d="M328.518 68.7247H309.226C308.633 68.7247 308.153 69.2054 308.153 69.7982V72.7011C308.153 73.294 308.633 73.7746 309.226 73.7746H328.518C329.111 73.7746 329.592 73.294 329.592 72.7011V69.7982C329.592 69.2054 329.111 68.7247 328.518 68.7247Z" fill="#072636"/>
<path d="M72.5519 127.426C69.8909 123.752 73.2323 122.883 73.2323 122.883C71.0778 120.66 74.457 118.4 74.457 118.4C72.9375 116.079 75.6892 114.975 74.903 113.985C74.1243 112.995 72.2042 109.124 74.4947 108.27C76.7853 107.415 82.9843 112.034 82.9843 112.034C82.9843 112.034 79.6051 94.2616 82.3568 93.6795C85.1086 93.0974 89.5915 109.532 91.9274 115.542C95.4049 124.493 93.9836 135.16 98.784 143.468C103.343 151.36 108.536 157.687 113.835 165.081L116.844 187.563C116.844 187.563 101.808 201.133 85.29 154.422C84.2165 151.262 83.5588 142.039 82.0318 140.187C80.4971 138.335 75.2129 131.1 72.5519 127.426Z" fill="#F27A6D"/>
<path d="M88.5089 134.963C88.3653 134.963 88.2292 134.91 88.1234 134.804C87.9419 134.623 87.9193 134.343 88.0478 134.131C88.0553 133.98 87.9797 132.914 84.8651 129.966C80.5637 125.899 80.5486 120.463 80.5486 120.229V120.146C80.9795 117.621 78.5528 115.595 76.4134 113.803C75.5667 113.093 74.7654 112.42 74.1531 111.739C73.6919 111.225 73.2459 110.643 73.1325 109.917C72.9586 108.806 73.3668 108.277 73.7373 108.028C75.0829 107.105 78.0387 108.655 79.2483 109.358C80.2613 109.948 81.244 110.605 82.189 111.24C82.5141 111.46 82.8391 111.671 83.1642 111.891C86.3317 113.985 89.8848 120.493 90.036 120.773C90.1796 121.038 90.0813 121.37 89.8167 121.514C89.5521 121.658 89.2195 121.559 89.0759 121.295C89.0381 121.227 85.5077 114.748 82.567 112.805C82.2419 112.586 81.9169 112.367 81.5842 112.155C80.6468 111.528 79.6792 110.878 78.6964 110.303C76.746 109.162 74.8712 108.572 74.3496 108.927C74.1531 109.063 74.1682 109.449 74.2135 109.751C74.2816 110.197 74.6142 110.621 74.9695 111.014C75.5289 111.634 76.3 112.284 77.1164 112.964C79.4675 114.93 82.1285 117.16 81.6372 120.274C81.6447 120.751 81.8413 125.604 85.6135 129.172C87.9419 131.372 89.1288 133.027 89.1439 134.093C89.1439 134.509 88.9776 134.728 88.902 134.804C88.7962 134.91 88.6601 134.963 88.5165 134.963H88.5089Z" fill="#1B1B14"/>
<path d="M81.0863 120.781C80.9502 120.781 80.8066 120.728 80.7007 120.622L75.6433 115.527C75.4316 115.315 75.4316 114.968 75.6433 114.756C75.855 114.544 76.2027 114.544 76.4144 114.756L81.4718 119.851C81.6835 120.063 81.6835 120.411 81.4718 120.622C81.366 120.728 81.2299 120.781 81.0863 120.781Z" fill="#1B1B14"/>
<path d="M82.4318 126.217C82.4318 126.217 82.3789 126.217 82.3562 126.217C82.205 126.194 78.6747 125.657 76.2858 122.104C75.8171 121.409 75.5298 120.978 75.3484 120.713C75.3333 120.691 75.3106 120.675 75.2955 120.645C75.2426 120.57 75.1896 120.494 75.1443 120.418C75.1065 120.358 75.0838 120.335 75.0762 120.32C74.925 120.033 74.8797 119.768 75.2048 119.549C75.5298 119.33 75.7566 119.473 75.9607 119.723H75.9683C75.9683 119.723 76.0061 119.776 76.0363 119.821C76.0892 119.897 76.1422 119.972 76.1951 120.056C76.3765 120.328 76.6789 120.774 77.1627 121.499C79.2719 124.637 82.4545 125.136 82.4847 125.136C82.7796 125.181 82.9912 125.453 82.9459 125.756C82.9081 126.028 82.6737 126.224 82.4091 126.224L82.4318 126.217Z" fill="#1B1B14"/>
<path d="M82.0162 130.903C80.6631 130.903 78.9243 130.155 77.6392 128.968C75.6283 127.108 74.2524 125.143 74.192 125.06C74.0181 124.81 74.0786 124.47 74.328 124.304C74.5775 124.13 74.9101 124.19 75.084 124.44C75.0991 124.463 76.4599 126.398 78.3725 128.174C79.7256 129.429 81.4946 129.974 82.4169 129.785C82.6966 129.724 82.878 129.611 82.9536 129.437C83.1653 128.961 81.4795 126.867 79.4913 125.12C79.2645 124.924 79.2418 124.576 79.4384 124.349C79.6349 124.122 79.9827 124.1 80.2095 124.296C81.5551 125.476 84.6092 128.386 83.9515 129.883C83.7928 130.231 83.445 130.684 82.6437 130.851C82.4471 130.888 82.2355 130.911 82.0162 130.911V130.903Z" fill="#1B1B14"/>
<path d="M77.7074 130.934C76.4525 130.934 74.9708 130.049 73.3152 128.295C73.1111 128.076 73.1186 127.728 73.3379 127.524C73.5571 127.32 73.8973 127.328 74.109 127.547C75.6209 129.149 76.9741 129.958 77.9115 129.837C78.5314 129.754 78.796 129.278 78.8035 129.255C78.9472 128.991 79.2722 128.892 79.5368 129.028C79.8014 129.165 79.9072 129.49 79.7712 129.754C79.7485 129.792 79.2647 130.745 78.0853 130.918C77.9644 130.934 77.8359 130.949 77.7074 130.949V130.934Z" fill="#1B1B14"/>
<path d="M142.826 340.133L153.259 205.147L130.617 223.086C130.617 223.086 119.195 227.448 113.207 217.636C107.22 207.823 80.028 144.534 80.028 144.534L99.9478 138.319L125.507 169.435L167.652 136.407C168.93 135.53 170.298 134.789 171.735 134.207L193.507 129.089L217.713 126.088L254.884 144.329C257.144 145.365 258.724 147.482 259.072 149.946C259.072 149.946 287.723 226.277 287.723 234.433C287.723 242.59 261.083 259.622 261.083 259.622L265.475 340.133H213.494L207.061 322.02L201.127 340.133H142.826Z" fill="white"/>
<path d="M171.266 70.4716C168.59 80.8964 170.049 93.5665 171.765 102.978C172.778 108.512 174.411 114.643 178.297 118.907C180.036 120.812 182.114 122.263 184.602 122.996C185.501 123.261 193.514 124.04 193.514 122.815V131.811L203.304 139.718L217.721 127.449C217.721 127.449 217.721 105.14 217.721 105.095C217.721 105.095 218.983 104.468 219.081 104.415C219.716 104.097 220.14 103.674 220.616 103.122C221.629 101.95 222.453 100.62 223.073 99.206C224.056 96.9532 224.509 94.4585 224.35 92.0016C224.229 90.1722 223.61 87.1483 221.531 86.5511C221.909 86.6569 221.901 73.0041 221.75 71.6963C221.017 65.4444 219.323 58.8146 214.273 54.6265C210.153 51.2171 204.552 50.1436 199.207 50.1814C190.657 50.2419 181.721 53.1826 176.339 59.8427C173.905 62.859 172.287 66.5028 171.266 70.4716Z" fill="#F27A6D"/>
<path d="M218.294 91.0263C218.218 91.0263 218.143 91.0112 218.067 90.9734C217.795 90.8449 217.674 90.5198 217.803 90.2477C217.833 90.1872 218.506 88.7433 219.912 88.5241C220.932 88.3653 222.021 88.8945 223.125 90.0965C223.329 90.3157 223.314 90.6635 223.094 90.8676C222.875 91.0717 222.527 91.0566 222.323 90.8373C221.741 90.2023 220.879 89.4766 220.078 89.6051C219.254 89.7336 218.793 90.6937 218.785 90.7088C218.695 90.9054 218.498 91.0263 218.294 91.0263Z" fill="#1B1B14"/>
<path d="M217.992 100.733C217.811 100.733 217.629 100.643 217.531 100.476C217.372 100.219 217.448 99.8868 217.705 99.7281C219.882 98.3749 220.933 96.2657 220.812 93.4611C220.721 91.299 219.95 89.5225 219.943 89.4998C219.822 89.2276 219.943 88.9026 220.222 88.7816C220.495 88.6607 220.82 88.7816 220.941 89.0613C220.978 89.1369 224.327 96.9007 218.28 100.65C218.189 100.703 218.091 100.733 217.992 100.733Z" fill="#1B1B14"/>
<path d="M185.627 96.6434C185.575 96.6434 185.522 96.6358 185.469 96.6207C185.038 96.4846 181.205 95.2675 180.487 93.1886C180.253 92.5082 180.374 91.8052 180.827 91.155C182.649 88.5469 185.068 78.3565 185.098 78.2582C185.166 77.9634 185.461 77.7819 185.756 77.85C186.051 77.918 186.232 78.2128 186.157 78.5077C186.058 78.931 183.662 89.0005 181.719 91.7825C181.462 92.1529 181.394 92.4855 181.515 92.8408C181.969 94.1638 184.751 95.2675 185.786 95.585C186.074 95.6757 186.232 95.9781 186.149 96.2654C186.081 96.4997 185.862 96.6509 185.627 96.6509V96.6434Z" fill="#1B1B14"/>
<path d="M194.875 82.1885C195.776 82.1885 196.508 81.4574 196.508 80.5556C196.508 79.6538 195.776 78.9227 194.875 78.9227C193.973 78.9227 193.242 79.6538 193.242 80.5556C193.242 81.4574 193.973 82.1885 194.875 82.1885Z" fill="#1B1B14"/>
<path d="M178.281 82.1885C179.183 82.1885 179.914 81.4574 179.914 80.5556C179.914 79.6538 179.183 78.9227 178.281 78.9227C177.379 78.9227 176.648 79.6538 176.648 80.5556C176.648 81.4574 177.379 82.1885 178.281 82.1885Z" fill="#1B1B14"/>
<path d="M189.078 104.619C184.935 104.619 181.662 102.381 181.51 102.267C181.261 102.094 181.2 101.753 181.374 101.512C181.548 101.262 181.881 101.202 182.13 101.375C182.168 101.406 186.318 104.225 190.907 103.364C193.651 102.85 196.025 101.126 197.96 98.2458C198.127 97.9963 198.467 97.9282 198.716 98.1021C198.966 98.2684 199.034 98.6086 198.86 98.8581C196.751 101.988 194.135 103.87 191.096 104.437C190.408 104.566 189.735 104.619 189.078 104.619Z" fill="#1B1B14"/>
<path d="M172.618 66.2989C172.618 66.2989 179.369 68.2871 185.629 66.3745C191.888 64.4619 209.29 61.4682 208.474 66.3745C207.658 71.2807 204.936 92.8183 209.835 90.9132C214.733 89.0082 214.189 85.1906 221.53 86.5513C221.53 86.5513 225.068 74.0098 224.251 62.2847C223.435 50.5596 207.113 45.1091 190.248 47.2863C173.382 49.471 162.776 46.1977 163.864 54.3772C164.953 62.5568 167.501 65.3993 172.618 66.2913V66.2989Z" fill="#1B1B14"/>
<path d="M183.215 78.8024L182.55 77.9406C183.578 77.1468 186.133 76.1187 188.424 77.9406L187.743 78.7948C185.551 77.0485 183.298 78.7268 183.207 78.7948L183.215 78.8024Z" fill="#F9F8DC"/>
<path d="M193.513 131.811C193.513 131.811 206.569 124.72 207.929 117.364C207.929 117.364 197.595 123.359 193.513 122.815V131.811Z" fill="#8D1C1C"/>
<path d="M193.513 122.815C193.513 122.815 202.071 120.35 207.113 117.092C208.005 116.51 207.929 117.092 207.793 117.228C207.793 117.228 206.183 121.242 193.513 124.183V122.822V122.815Z" fill="#1B1B14"/>
<path d="M202.254 80.2639L202.142 81.3468L216.694 82.8454L216.805 81.7625L202.254 80.2639Z" fill="#F9F8DC"/>
<path d="M194.873 88.5996C190.602 88.5996 187.125 85.1146 187.125 80.8282C187.125 76.5419 190.602 73.0569 194.873 73.0569C199.145 73.0569 202.622 76.5419 202.622 80.8282C202.622 85.1146 199.145 88.5996 194.873 88.5996ZM194.873 74.153C191.199 74.153 188.206 77.1467 188.206 80.8358C188.206 84.5249 191.192 87.5186 194.873 87.5186C198.555 87.5186 201.541 84.5249 201.541 80.8358C201.541 77.1467 198.555 74.153 194.873 74.153Z" fill="#F9F8DC"/>
<path d="M176.104 88.5996C171.833 88.5996 168.355 85.1146 168.355 80.8282C168.355 76.5419 171.833 73.0569 176.104 73.0569C180.375 73.0569 183.853 76.5419 183.853 80.8282C183.853 85.1146 180.375 88.5996 176.104 88.5996ZM176.104 74.153C172.43 74.153 169.436 77.1467 169.436 80.8358C169.436 84.5249 172.422 87.5186 176.104 87.5186C179.785 87.5186 182.771 84.5249 182.771 80.8358C182.771 77.1467 179.785 74.153 176.104 74.153Z" fill="#F9F8DC"/>
<path d="M201.261 73.4651C201.057 73.4651 200.845 73.4122 200.649 73.2988C194.427 69.7004 189.96 73.0569 189.771 73.2005C189.241 73.6163 188.47 73.518 188.054 72.9888C187.639 72.4597 187.729 71.6886 188.259 71.2728C188.493 71.0838 194.163 66.7218 201.866 71.1745C202.448 71.5147 202.652 72.2631 202.312 72.8527C202.085 73.2459 201.677 73.4651 201.254 73.4651H201.261Z" fill="#1B1B14"/>
<path d="M181.139 73.4651C180.935 73.4651 180.723 73.4122 180.527 73.2988C174.305 69.7004 169.837 73.0569 169.648 73.2005C169.119 73.6163 168.348 73.518 167.932 72.9888C167.516 72.4597 167.607 71.6886 168.136 71.2728C168.371 71.0838 174.048 66.7218 181.744 71.1745C182.326 71.5147 182.53 72.2631 182.19 72.8527C181.963 73.2459 181.555 73.4651 181.131 73.4651H181.139Z" fill="#1B1B14"/>
<path d="M193.515 131.81L204.121 205.154L217.721 127.448L203.304 139.717L193.515 131.81Z" fill="#1F6F93"/>
<path d="M207.931 213.062C207.855 213.062 207.78 213.047 207.712 213.017C207.44 212.896 207.311 212.571 207.44 212.299L227.979 166.237L221.682 157.634L232.145 155.427L219.142 130.163C219.006 129.898 219.112 129.565 219.376 129.429C219.641 129.293 219.974 129.399 220.11 129.664L233.763 156.198L223.557 158.353L229.227 166.109L208.422 212.745C208.332 212.949 208.135 213.07 207.924 213.07L207.931 213.062Z" fill="#1B1B14"/>
<path d="M200.582 213.062C200.355 213.062 200.144 212.919 200.068 212.692L182.295 158.973L187.769 151.987H180.05L192.229 131.259C192.38 131.002 192.713 130.911 192.977 131.062C193.234 131.213 193.325 131.546 193.174 131.811L181.963 150.891H190.021L183.528 159.177L201.119 212.336C201.217 212.624 201.059 212.934 200.771 213.024C200.711 213.047 200.658 213.055 200.597 213.055L200.582 213.062Z" fill="#1B1B14"/>
<path d="M204.121 239.506C203.818 239.506 203.577 239.264 203.577 238.962V202.698C203.577 202.395 203.818 202.153 204.121 202.153C204.423 202.153 204.665 202.395 204.665 202.698V238.962C204.665 239.264 204.423 239.506 204.121 239.506Z" fill="#1B1B14"/>
<path d="M127.421 190.701C127.421 190.701 127.399 190.701 127.391 190.701C127.089 190.686 126.862 190.429 126.877 190.126C127.414 181.039 125.01 169.662 124.987 169.549C124.927 169.254 125.108 168.967 125.403 168.899C125.698 168.838 125.985 169.027 126.045 169.314C126.068 169.428 128.502 180.941 127.958 190.179C127.943 190.466 127.701 190.693 127.414 190.693L127.421 190.701Z" fill="#1B1B14"/>
<path d="M193.528 124.448C193.49 124.448 193.452 124.448 193.407 124.455C193.195 124.493 188.244 125.483 183.058 129.89C174.425 137.231 172.142 148.162 171.748 156.047C171.733 156.349 171.968 156.606 172.263 156.622C172.27 156.622 172.278 156.622 172.293 156.622C172.58 156.622 172.822 156.395 172.837 156.1C173.215 148.45 175.415 137.851 183.715 130.76C188.327 126.829 192.848 125.695 193.52 125.544V124.448H193.528Z" fill="#1B1B14"/>
<path d="M165.097 181.84C164.847 181.84 164.62 181.667 164.568 181.41C164.56 181.372 163.736 177.441 163.547 172.746C163.29 166.373 164.265 161.686 166.435 158.806C167.917 156.848 169.935 155.767 172.452 155.601C174.894 155.434 176.867 156.206 178.334 157.899C180.594 160.507 181.584 165.217 181.282 171.892C181.063 176.806 180.178 181.039 180.171 181.077C180.11 181.372 179.823 181.561 179.528 181.5C179.233 181.44 179.044 181.153 179.105 180.858C179.143 180.691 182.492 164.355 177.51 158.609C176.262 157.173 174.637 156.546 172.528 156.689C170.343 156.841 168.582 157.77 167.304 159.471C162.466 165.882 165.603 181.039 165.633 181.19C165.694 181.485 165.505 181.772 165.218 181.84C165.18 181.848 165.142 181.856 165.104 181.856L165.097 181.84Z" fill="#1B1B14"/>
<path d="M227.716 126.911C222.84 122.398 218.123 120.478 217.927 120.395C217.866 120.372 217.806 120.357 217.745 120.357V121.499C218.728 121.93 222.856 123.88 227.013 127.735C231.36 131.765 236.629 138.78 237.045 149.281C237.06 149.575 237.295 149.802 237.589 149.802C237.589 149.802 237.605 149.802 237.612 149.802C237.914 149.787 238.149 149.538 238.134 149.235C237.703 138.342 232.237 131.084 227.724 126.911H227.716Z" fill="#1B1B14"/>
<path d="M237.853 155.805C235.902 155.805 234.315 154.218 234.315 152.26C234.315 150.302 235.902 148.714 237.853 148.714C239.803 148.714 241.39 150.302 241.39 152.26C241.39 154.218 239.803 155.805 237.853 155.805ZM237.853 149.811C236.499 149.811 235.403 150.914 235.403 152.268C235.403 153.621 236.499 154.724 237.853 154.724C239.206 154.724 240.302 153.621 240.302 152.268C240.302 150.914 239.206 149.811 237.853 149.811Z" fill="#1B1B14"/>
<path d="M213.705 153.537L202.547 139.643L218.513 126.05L213.705 153.53V153.537ZM204.059 139.786L213.048 150.975L216.926 128.832L204.059 139.779V139.786Z" fill="#1B1B14"/>
<path d="M196.196 152.849L192.756 130.502L204.005 139.589L196.188 152.849H196.196ZM194.261 133.118L196.808 149.666L202.592 139.846L194.261 133.118Z" fill="#1B1B14"/>
<path d="M204.122 203.122C203.827 203.122 203.585 202.88 203.577 202.585L202.761 139.726C202.761 139.424 202.995 139.174 203.298 139.174C203.592 139.174 203.834 139.416 203.842 139.711L204.658 202.57C204.658 202.872 204.424 203.122 204.122 203.122Z" fill="#1B1B14"/>
<path d="M219.134 248.563L211.332 221.537C210.932 220.153 209.609 219.254 208.172 219.397L171.44 223.094C169.61 223.276 168.386 225.067 168.862 226.844L183.573 285.182C183.981 286.694 185.501 287.631 187.035 287.321L224.38 283.496C226.036 283.163 227.079 281.515 226.686 279.867L219.134 248.548V248.563Z" fill="#1B1B14"/>
<path d="M200.993 215.603C200.993 215.603 203.918 216.767 203.026 219.919L196.26 220.6C196.26 220.6 196.616 217.274 200.993 215.603Z" fill="#1F6F93"/>
<path d="M200.994 215.603C200.994 215.603 190.048 218.665 199.648 237.413L165.879 239.907C165.879 239.907 158.259 221.001 170.392 217.364L200.986 215.603H200.994Z" fill="#B1E2F8"/>
<path d="M166.898 236.392L166.853 235.575C167.972 235.515 194.302 234.033 194.68 234.026V234.842C194.31 234.85 176.34 235.855 166.898 236.392Z" fill="#FFF9F7"/>
<path d="M166.092 234.139L166.046 233.323C167.165 233.262 193.496 231.781 193.874 231.773L193.889 232.59C193.511 232.597 175.541 233.603 166.099 234.139H166.092Z" fill="#FFF9F7"/>
<path d="M165.636 231.198L165.591 230.382C166.71 230.322 193.04 228.84 193.418 228.832L193.433 229.649C193.055 229.656 175.086 230.662 165.644 231.198H165.636Z" fill="#FFF9F7"/>
<path d="M227.769 251.814C226.869 251.556 222.772 249.712 219.302 250.377C215.545 251.095 214.736 250.929 210.774 249.372C206.813 247.814 203.661 247.089 205.12 249.583C206.579 252.078 213.186 252.04 210.994 253.537C207.509 255.911 203.056 256.425 199.352 258.368C198.876 258.617 196.729 259.812 197.915 260.469C198.157 260.598 198.445 260.598 198.717 260.583C200.093 260.522 201.468 260.386 202.837 260.175C203.517 260.069 204.198 259.948 204.87 259.804C205.331 259.706 205.876 259.547 206.292 259.865C203.147 261.278 200.047 262.805 197.008 264.438C196.683 264.612 196.056 264.914 195.935 265.292C195.693 266.094 196.948 265.867 197.409 265.799C198.437 265.64 199.45 265.406 200.463 265.171C201.083 265.028 205.634 263.765 205.732 264.143C204.077 265.194 202.111 265.837 200.395 266.804C199.858 267.107 196.086 269.035 197.069 269.79C197.515 270.138 199.019 269.67 199.548 269.594C200.516 269.458 201.484 269.292 202.451 269.11C204.417 268.732 206.367 268.263 208.287 267.696C208.658 267.591 209.126 267.417 209.52 267.5C210.064 267.613 210.056 267.976 209.588 268.263C207.977 269.254 206.284 270.07 204.636 270.985C203.986 271.34 203.283 271.665 202.731 272.172C201.657 273.162 202.996 273.623 203.993 273.623C206.118 273.623 208.174 273.026 210.2 272.436C212.241 271.839 214.252 271.438 216.338 271.061C218.909 270.599 221.509 270.168 223.951 269.201C228.268 267.492 231.095 265.618 231.095 265.618L227.776 251.844L227.769 251.814Z" fill="#F27A6D"/>
<path d="M230.67 270.826L227.064 251.51L255.972 224.795L243.189 184.456C243.098 184.169 243.257 183.859 243.544 183.768C243.831 183.677 244.134 183.836 244.224 184.123L257.22 225.127L228.251 251.904L231.517 269.374L260.924 259.1C261.211 259.002 261.521 259.153 261.619 259.433C261.718 259.72 261.566 260.03 261.287 260.129L230.685 270.818L230.67 270.826Z" fill="#1B1B14"/>
<path d="M296.339 376.503H48.3815V378.015H296.339V376.503Z" fill="white"/>
<path d="M371.769 343.354C372.162 342.953 378.898 318.664 395.544 323.049C412.183 327.426 412.977 343.755 409.016 344.155C405.054 344.556 405.848 342.961 404.261 341.766C402.673 340.572 403.467 342.56 400.693 342.56C397.918 342.56 396.331 342.16 396.331 339.771C396.331 337.382 396.331 334.993 393.163 336.187C389.996 337.382 384.84 340.564 384.046 337.382C383.252 334.199 383.252 331.81 380.085 333.799C376.917 335.787 371.762 343.354 371.762 343.354H371.769Z" fill="#90E4E5"/>
<path d="M370.582 339.453C370.582 339.453 371.376 319.148 365.033 310.386C358.69 301.625 351.161 296.847 346.013 296.847C340.865 296.847 344.425 300.029 346.013 300.831C347.6 301.632 348.787 302.819 346.807 304.013C344.826 305.208 342.052 307.997 344.032 309.585C346.013 311.172 350.375 311.573 353.149 312.374C355.924 313.176 354.737 314.763 352.756 315.958C350.775 317.152 350.775 320.335 354.344 321.529C357.912 322.724 363.461 322.724 361.079 325.113C358.698 327.501 361.079 330.291 363.06 329.89C365.041 329.49 366.227 329.89 367.021 332.279C367.815 334.668 368.609 333.474 369.002 335.462C369.395 337.45 369.395 340.239 370.589 339.446L370.582 339.453Z" fill="#90E4E5"/>
<path d="M364.809 335.613C364.877 335.054 360.908 331.531 353.34 331.418C345.773 331.304 336.467 339 335.568 346.507C334.668 354.021 337.813 354.399 340.111 351.867C342.409 349.334 342.409 349.334 345.116 350.067C347.822 350.793 350.627 350.733 350.657 347.127C350.687 343.521 352.01 342.477 354.769 342.81C357.529 343.143 360.764 342.734 360.265 340.27C359.766 337.806 359.698 334.986 361.618 335.621C363.538 336.256 364.718 336.399 364.816 335.606L364.809 335.613Z" fill="#90E4E5"/>
<path d="M384.515 343.051H358.479V358.08H384.515V343.051Z" fill="white"/>
<path d="M368.49 343.12C368.256 338.856 365.481 336.097 364.574 336.097V335.537C365.965 335.537 368.8 338.728 369.042 343.082L368.49 343.112V343.12Z" fill="#90E4E5"/>
<path d="M370.671 336.082L370.119 336.099L370.343 343.058L370.894 343.041L370.671 336.082Z" fill="#90E4E5"/>
<path d="M96.7641 238.917H9.8276C4.39997 238.917 0 243.316 0 248.744V298.638C0 304.066 4.39997 308.466 9.8276 308.466H96.7641C102.192 308.466 106.592 304.066 106.592 298.638V248.744C106.592 243.316 102.192 238.917 96.7641 238.917Z" fill="white"/>
<path d="M93.7405 253.658H9.82793V255.926H93.7405V253.658Z" fill="#072636"/>
<path d="M93.7405 266.132H9.82793V268.399H93.7405V266.132Z" fill="#072636"/>
<path d="M93.7405 278.605H9.82793V280.873H93.7405V278.605Z" fill="#072636"/>
<path d="M93.7405 291.079H9.82793V293.347H93.7405V291.079Z" fill="#072636"/>
<path d="M242.288 29.0066L235.975 0.514148L237.45 0.189087L243.754 28.674L242.288 29.0066Z" fill="white"/>
<path d="M253.143 31.728L251.813 31.0174L268.217 0L269.548 0.703046L253.143 31.728Z" fill="white"/>
<path d="M259.632 37.7987L259.208 36.3473L286.96 28.1147L287.383 29.5662L259.632 37.7987Z" fill="white"/>
</svg>
