<svg width="20" height="18" viewBox="0 0 20 18" fill="none" xmlns="http://www.w3.org/2000/svg">
    <path
        d="M14.5432 4.57002H0.823831C0.391926 4.57002 0.0616455 4.23974 0.0616455 3.80784C0.0616455 3.37593 0.391926 3.04565 0.823831 3.04565H14.5432C14.9751 3.04565 15.3054 3.37593 15.3054 3.80784C15.3054 4.23974 14.9751 4.57002 14.5432 4.57002Z"
        fill="#999999" />
    <path
        d="M16.9512 0.850342C16.3482 0.850342 15.7587 1.02915 15.2574 1.36415C14.756 1.69915 14.3652 2.1753 14.1345 2.73238C13.9037 3.28947 13.8434 3.90247 13.961 4.49387C14.0786 5.08526 14.369 5.6285 14.7954 6.05487C15.2217 6.48125 15.765 6.77161 16.3564 6.88925C16.9478 7.00688 17.5608 6.94651 18.1179 6.71576C18.6749 6.485 19.1511 6.09424 19.4861 5.59288C19.8211 5.09151 19.9999 4.50207 19.9999 3.89909C19.9999 3.09051 19.6787 2.31505 19.1069 1.7433C18.5352 1.17155 17.7597 0.850342 16.9512 0.850342ZM16.9512 5.42346C16.6497 5.42346 16.3549 5.33405 16.1043 5.16655C15.8536 4.99905 15.6582 4.76098 15.5428 4.48244C15.4274 4.20389 15.3973 3.89739 15.4561 3.60169C15.5149 3.306 15.6601 3.03438 15.8733 2.82119C16.0864 2.608 16.3581 2.46282 16.6538 2.404C16.9495 2.34519 17.256 2.37537 17.5345 2.49075C17.813 2.60613 18.0511 2.80151 18.2186 3.05219C18.3861 3.30287 18.4755 3.59759 18.4755 3.89909C18.4755 4.30337 18.3149 4.6911 18.029 4.97698C17.7432 5.26285 17.3554 5.42346 16.9512 5.42346Z"
        fill="#999999" />
    <path
        d="M14.5432 15.479H0.823892C0.391987 15.479 0.0617065 15.1487 0.0617065 14.7168C0.0617065 14.2849 0.391987 13.9546 0.823892 13.9546H14.5432C14.9751 13.9546 15.3054 14.2849 15.3054 14.7168C15.3054 15.1487 14.9751 15.479 14.5432 15.479Z"
        fill="#999999" />
    <path
        d="M16.9512 11.7595C16.3482 11.7595 15.7588 11.9383 15.2574 12.2733C14.7561 12.6083 14.3653 13.0845 14.1345 13.6416C13.9038 14.1986 13.8434 14.8116 13.961 15.403C14.0787 15.9944 14.369 16.5377 14.7954 16.9641C15.2218 17.3904 15.765 17.6808 16.3564 17.7984C16.9478 17.9161 17.5608 17.8557 18.1179 17.6249C18.675 17.3942 19.1511 17.0034 19.4861 16.5021C19.8211 16.0007 20 15.4112 20 14.8083C20 13.9997 19.6787 13.2242 19.107 12.6525C18.5352 12.0807 17.7598 11.7595 16.9512 11.7595ZM16.9512 16.3326C16.6497 16.3326 16.355 16.2432 16.1043 16.0757C15.8536 15.9082 15.6583 15.6702 15.5429 15.3916C15.4275 15.1131 15.3973 14.8066 15.4561 14.5109C15.5149 14.2152 15.6601 13.9436 15.8733 13.7304C16.0865 13.5172 16.3581 13.372 16.6538 13.3132C16.9495 13.2544 17.256 13.2846 17.5346 13.3999C17.8131 13.5153 18.0512 13.7107 18.2187 13.9614C18.3862 14.2121 18.4756 14.5068 18.4756 14.8083C18.4756 15.2126 18.315 15.6003 18.0291 15.8862C17.7432 16.172 17.3555 16.3326 16.9512 16.3326Z"
        fill="#999999" />
    <path
        d="M5.45677 8.35038L19.1761 8.35039C19.608 8.35039 19.9383 8.68067 19.9383 9.11257C19.9383 9.54448 19.608 9.87476 19.1761 9.87476L5.45677 9.87475C5.02487 9.87475 4.69459 9.54447 4.69459 9.11257C4.69459 8.68066 5.02487 8.35038 5.45677 8.35038Z"
        fill="#999999" />
    <path
        d="M3.04873 12.0698C3.65171 12.0698 4.24116 11.891 4.74252 11.556C5.24388 11.221 5.63465 10.7449 5.8654 10.1878C6.09615 9.6307 6.15653 9.0177 6.03889 8.4263C5.92125 7.8349 5.63089 7.29167 5.20452 6.86529C4.77814 6.43892 4.23491 6.14855 3.64351 6.03092C3.05211 5.91328 2.43911 5.97366 1.88202 6.20441C1.32494 6.43516 0.848791 6.82593 0.51379 7.32729C0.17879 7.82865 -1.54164e-05 8.4181 -1.54691e-05 9.02108C-1.55398e-05 9.82966 0.32119 10.6051 0.89294 11.1769C1.46469 11.7486 2.24015 12.0698 3.04873 12.0698ZM3.04873 7.49671C3.35022 7.49671 3.64494 7.58611 3.89562 7.75361C4.14631 7.92111 4.34169 8.15919 4.45706 8.43773C4.57244 8.71627 4.60263 9.02277 4.54381 9.31847C4.48499 9.61417 4.33981 9.88579 4.12662 10.099C3.91343 10.3122 3.64182 10.4573 3.34612 10.5162C3.05042 10.575 2.74392 10.5448 2.46538 10.4294C2.18683 10.314 1.94876 10.1187 1.78126 9.86798C1.61376 9.61729 1.52436 9.32257 1.52436 9.02108C1.52436 8.61679 1.68496 8.22906 1.97083 7.94319C2.25671 7.65731 2.64444 7.49671 3.04873 7.49671Z"
        fill="#999999" />
</svg>
    