<svg width="24" height="24" viewBox="0 0 24 24" fill="none" xmlns="http://www.w3.org/2000/svg">
    <path
        d="M4.00006 10C4.00006 16.44 11.1201 21.6 11.4201 21.81C11.5894 21.9306 11.7922 21.9954 12.0001 21.9954C12.208 21.9954 12.4107 21.9306 12.5801 21.81C12.8801 21.6 20.0001 16.44 20.0001 10C20.0001 7.87827 19.1572 5.84344 17.6569 4.34315C16.1566 2.84285 14.1218 2 12.0001 2C9.87833 2 7.8435 2.84285 6.34321 4.34315C4.84292 5.84344 4.00006 7.87827 4.00006 10ZM18.0001 10C18.0001 14.44 13.6101 18.42 12.0001 19.73C10.3901 18.42 6.00006 14.44 6.00006 10C6.00006 8.4087 6.6322 6.88258 7.75742 5.75736C8.88264 4.63214 10.4088 4 12.0001 4C13.5914 4 15.1175 4.63214 16.2427 5.75736C17.3679 6.88258 18.0001 8.4087 18.0001 10Z"
        fill="#999999" />
    <path
        d="M12.0001 12C13.1046 12 14.0001 11.1046 14.0001 10C14.0001 8.89543 13.1046 8 12.0001 8C10.8955 8 10.0001 8.89543 10.0001 10C10.0001 11.1046 10.8955 12 12.0001 12Z"
        fill="#999999" />
</svg>
    