<svg width="171" height="30" viewBox="0 0 171 30" fill="none" xmlns="http://www.w3.org/2000/svg">
<path d="M53.4996 10.5451C54.9183 10.5451 56.0292 10.9734 56.8323 11.83C57.6488 12.6866 58.057 13.8578 58.057 15.3434V21.9085H54.122V15.8654C54.122 15.2631 53.9547 14.7947 53.62 14.46C53.2854 14.1254 52.8304 13.9581 52.2548 13.9581C51.6793 13.9581 51.2242 14.1254 50.8896 14.46C50.555 14.7947 50.3877 15.2631 50.3877 15.8654V21.9085H46.4527V15.8654C46.4527 15.2631 46.2854 14.7947 45.9508 14.46C45.6295 14.1254 45.1812 13.9581 44.6056 13.9581C44.0167 13.9581 43.5549 14.1254 43.2203 14.46C42.8857 14.7947 42.7184 15.2631 42.7184 15.8654V21.9085H38.7834V10.6455H42.7184V12.1312C43.0664 11.6493 43.5148 11.2679 44.0636 10.9868C44.6257 10.6923 45.2682 10.5451 45.9909 10.5451C46.8207 10.5451 47.5569 10.7258 48.1993 11.0872C48.8552 11.4485 49.3705 11.9572 49.7452 12.613C50.1468 11.9973 50.6755 11.5021 51.3313 11.1273C51.9871 10.7392 52.7099 10.5451 53.4996 10.5451Z" fill="#ED880A"/>
<path d="M70.974 16.1465C70.974 16.4543 70.9539 16.7622 70.9137 17.07H63.4653C63.5055 17.6857 63.6728 18.1475 63.9672 18.4553C64.2751 18.7498 64.6632 18.897 65.1317 18.897C65.7875 18.897 66.256 18.6025 66.537 18.0136H70.7331C70.5591 18.7899 70.2178 19.4859 69.7091 20.1016C69.2139 20.7039 68.5849 21.179 67.8219 21.527C67.059 21.875 66.2158 22.049 65.2923 22.049C64.1814 22.049 63.1909 21.8148 62.3209 21.3463C61.4643 20.8779 60.7884 20.2087 60.2932 19.3387C59.8113 18.4687 59.5704 17.4448 59.5704 16.267C59.5704 15.0891 59.8113 14.0719 60.2932 13.2153C60.775 12.3453 61.4442 11.6761 62.3009 11.2076C63.1708 10.7392 64.168 10.5049 65.2923 10.5049C66.4032 10.5049 67.3869 10.7325 68.2435 11.1876C69.1002 11.6426 69.7694 12.2985 70.2512 13.1551C70.7331 13.9983 70.974 14.9954 70.974 16.1465ZM66.9586 15.1627C66.9586 14.6809 66.798 14.3061 66.4768 14.0384C66.1556 13.7574 65.754 13.6168 65.2722 13.6168C64.7904 13.6168 64.3955 13.7507 64.0877 14.0184C63.7798 14.2727 63.5791 14.6541 63.4854 15.1627H66.9586Z" fill="#ED880A"/>
<path d="M71.9419 16.267C71.9419 15.1025 72.1493 14.0853 72.5643 13.2153C72.9926 12.3453 73.5748 11.6761 74.3109 11.2076C75.0471 10.7392 75.8635 10.5049 76.7603 10.5049C77.483 10.5049 78.1255 10.6589 78.6876 10.9667C79.2632 11.2612 79.7116 11.6694 80.0328 12.1914V7.05176H83.9879V21.9085H80.0328V20.3425C79.7249 20.8645 79.29 21.2794 78.7278 21.5873C78.1657 21.8951 77.5031 22.049 76.7402 22.049C75.8435 22.049 75.027 21.8148 74.2909 21.3463C73.5681 20.8779 72.9926 20.2087 72.5643 19.3387C72.1493 18.4553 71.9419 17.4314 71.9419 16.267ZM80.0529 16.267C80.0529 15.5442 79.8521 14.9754 79.4506 14.5604C79.0624 14.1455 78.5806 13.9381 78.005 13.9381C77.4161 13.9381 76.9276 14.1455 76.5394 14.5604C76.1513 14.962 75.9572 15.5308 75.9572 16.267C75.9572 16.9897 76.1513 17.5652 76.5394 17.9935C76.9276 18.4085 77.4161 18.6159 78.005 18.6159C78.5806 18.6159 79.0624 18.4085 79.4506 17.9935C79.8521 17.5786 80.0529 17.0031 80.0529 16.267Z" fill="#ED880A"/>
<path d="M86.6603 16.267C86.6603 15.1025 86.9012 14.0853 87.383 13.2153C87.8649 12.3454 88.5341 11.6761 89.3907 11.2077C90.2607 10.7392 91.2511 10.505 92.3621 10.505C93.7942 10.505 94.9988 10.8998 95.9759 11.6895C96.9529 12.4658 97.582 13.5566 97.8631 14.962H93.6871C93.4462 14.2259 92.9777 13.8578 92.2817 13.8578C91.7865 13.8578 91.3917 14.0653 91.0972 14.4802C90.8161 14.8817 90.6756 15.4773 90.6756 16.267C90.6756 17.0567 90.8161 17.659 91.0972 18.0739C91.3917 18.4888 91.7865 18.6963 92.2817 18.6963C92.9911 18.6963 93.4596 18.3282 93.6871 17.5921H97.8631C97.582 18.984 96.9529 20.0749 95.9759 20.8646C94.9988 21.6542 93.7942 22.0491 92.3621 22.0491C91.2511 22.0491 90.2607 21.8148 89.3907 21.3464C88.5341 20.8779 87.8649 20.2087 87.383 19.3387C86.9012 18.4687 86.6603 17.4448 86.6603 16.267Z" fill="white"/>
<path d="M104.738 22.0491C103.613 22.0491 102.603 21.8148 101.706 21.3464C100.823 20.8779 100.127 20.2087 99.6182 19.3387C99.1096 18.4687 98.8553 17.4448 98.8553 16.267C98.8553 15.1025 99.1096 14.0853 99.6182 13.2153C100.14 12.3454 100.843 11.6761 101.726 11.2077C102.623 10.7392 103.634 10.505 104.758 10.505C105.882 10.505 106.886 10.7392 107.769 11.2077C108.666 11.6761 109.369 12.3454 109.877 13.2153C110.399 14.0853 110.66 15.1025 110.66 16.267C110.66 17.4314 110.399 18.4554 109.877 19.3387C109.369 20.2087 108.666 20.8779 107.769 21.3464C106.873 21.8148 105.862 22.0491 104.738 22.0491ZM104.738 18.636C105.287 18.636 105.742 18.4353 106.103 18.0337C106.478 17.6188 106.665 17.0299 106.665 16.267C106.665 15.5041 106.478 14.9219 106.103 14.5203C105.742 14.1188 105.293 13.918 104.758 13.918C104.222 13.918 103.774 14.1188 103.413 14.5203C103.051 14.9219 102.871 15.5041 102.871 16.267C102.871 17.0433 103.045 17.6322 103.393 18.0337C103.741 18.4353 104.189 18.636 104.738 18.636Z" fill="white"/>
<path d="M119.629 10.5451C120.928 10.5451 121.958 10.9801 122.721 11.8501C123.484 12.7067 123.866 13.8712 123.866 15.3435V21.9085H119.931V15.8655C119.931 15.223 119.763 14.7211 119.429 14.3597C119.094 13.9849 118.646 13.7976 118.084 13.7976C117.495 13.7976 117.033 13.9849 116.698 14.3597C116.364 14.7211 116.196 15.223 116.196 15.8655V21.9085H112.261V10.6455H116.196V12.2517C116.544 11.7431 117.013 11.3348 117.602 11.027C118.191 10.7058 118.867 10.5451 119.629 10.5451Z" fill="white"/>
<path d="M133.393 10.5451C134.691 10.5451 135.722 10.9801 136.485 11.8501C137.248 12.7067 137.629 13.8712 137.629 15.3435V21.9085H133.694V15.8655C133.694 15.223 133.527 14.7211 133.192 14.3597C132.858 13.9849 132.409 13.7976 131.847 13.7976C131.258 13.7976 130.796 13.9849 130.462 14.3597C130.127 14.7211 129.96 15.223 129.96 15.8655V21.9085H126.025V10.6455H129.96V12.2517C130.308 11.7431 130.776 11.3348 131.365 11.027C131.954 10.7058 132.63 10.5451 133.393 10.5451Z" fill="white"/>
<path d="M150.549 16.1465C150.549 16.4544 150.529 16.7622 150.489 17.0701H143.041C143.081 17.6857 143.248 18.1475 143.543 18.4554C143.851 18.7498 144.239 18.897 144.707 18.897C145.363 18.897 145.831 18.6026 146.112 18.0137H150.309C150.135 18.79 149.793 19.486 149.285 20.1016C148.789 20.7039 148.16 21.1791 147.397 21.5271C146.634 21.8751 145.791 22.0491 144.868 22.0491C143.757 22.0491 142.766 21.8148 141.896 21.3464C141.04 20.8779 140.364 20.2087 139.869 19.3387C139.387 18.4687 139.146 17.4448 139.146 16.267C139.146 15.0892 139.387 14.0719 139.869 13.2153C140.35 12.3454 141.02 11.6761 141.876 11.2077C142.746 10.7392 143.743 10.505 144.868 10.505C145.979 10.505 146.962 10.7325 147.819 11.1876C148.676 11.6427 149.345 12.2985 149.827 13.1551C150.309 13.9983 150.549 14.9955 150.549 16.1465ZM146.534 15.1628C146.534 14.6809 146.373 14.3062 146.052 14.0385C145.731 13.7574 145.329 13.6169 144.848 13.6169C144.366 13.6169 143.971 13.7507 143.663 14.0184C143.355 14.2727 143.155 14.6542 143.061 15.1628H146.534Z" fill="white"/>
<path d="M151.517 16.267C151.517 15.1025 151.758 14.0853 152.24 13.2153C152.722 12.3454 153.391 11.6761 154.248 11.2077C155.118 10.7392 156.108 10.505 157.219 10.505C158.651 10.505 159.856 10.8998 160.833 11.6895C161.81 12.4658 162.439 13.5566 162.72 14.962H158.544C158.303 14.2259 157.835 13.8578 157.139 13.8578C156.644 13.8578 156.249 14.0653 155.954 14.4802C155.673 14.8817 155.533 15.4773 155.533 16.267C155.533 17.0567 155.673 17.659 155.954 18.0739C156.249 18.4888 156.644 18.6963 157.139 18.6963C157.848 18.6963 158.317 18.3282 158.544 17.5921H162.72C162.439 18.984 161.81 20.0749 160.833 20.8646C159.856 21.6542 158.651 22.0491 157.219 22.0491C156.108 22.0491 155.118 21.8148 154.248 21.3464C153.391 20.8779 152.722 20.2087 152.24 19.3387C151.758 18.4687 151.517 17.4448 151.517 16.267Z" fill="white"/>
<path d="M171 18.5557V21.9085H169.294C166.416 21.9085 164.977 20.4831 164.977 17.6322V13.918H163.592V10.6455H164.977V7.9151H168.932V10.6455H170.98V13.918H168.932V17.6924C168.932 18.0003 168.999 18.2211 169.133 18.355C169.28 18.4888 169.521 18.5557 169.856 18.5557H171Z" fill="white"/>
<g clip-path="url(#clip0_55_2232)">
<path d="M22.3134 24.6671V20.6055C22.3134 17.0231 20.8814 13.5666 18.3486 11.0338L17.7076 12.6981L18.7204 16.4867C19.2655 17.8025 19.5424 19.189 19.5424 20.6055V24.6671L21.0354 25.3604L22.3144 24.6671H22.3134Z" fill="white"/>
<path d="M22.3134 20.6471H19.5414V23.8344H22.3134V20.6471Z" fill="white"/>
<path d="M24.6671 7.06795H22.6077C22.4451 7.06795 22.3134 6.93627 22.3134 6.77361V4.71422C22.3134 2.1107 20.2027 0 17.5992 0H11.7822C9.17863 0 7.06793 2.1107 7.06793 4.71422V8.77587C7.06793 10.5603 7.42327 12.3147 8.09327 13.9384C8.76811 15.5737 9.7615 17.0773 11.0328 18.3486C12.2053 19.5211 13.5743 20.4564 15.0634 21.1244C16.7917 21.9 18.6807 22.3134 20.6055 22.3134H24.6671C27.2706 22.3134 29.3813 20.2027 29.3813 17.5992V11.7831C29.3813 9.17962 27.2706 7.06892 24.6671 7.06892V7.06795ZM26.6094 17.5982C26.6094 18.6691 25.738 19.5405 24.6671 19.5405H20.6055C19.189 19.5405 17.8025 19.2645 16.4867 18.7194C15.1699 18.1743 13.9955 17.3901 12.9934 16.388C11.9913 15.3859 11.207 14.2104 10.6619 12.8946C10.1168 11.5788 9.84089 10.1924 9.84089 8.77587V4.71422C9.84089 3.64338 10.7123 2.77199 11.7831 2.77199H17.6001C18.671 2.77199 19.5424 3.64338 19.5424 4.71422V8.26853C19.5424 9.13605 20.2463 9.83994 21.1138 9.83994H24.6681C25.7389 9.83994 26.6103 10.7113 26.6103 11.7822V17.5982H26.6094Z" fill="#ED880A"/>
<path d="M9.83992 8.24335H7.06793V8.77586C7.06793 9.69663 7.16378 10.6097 7.34678 11.5004H10.1914C9.95805 10.6126 9.83896 9.70051 9.83896 8.77586V8.24335H9.83992Z" fill="#ED880A"/>
<path d="M9.46911 9.83993C10.8111 9.83993 12.0107 10.0936 13.1367 10.6155C14.2337 11.1238 15.2968 11.9013 16.3889 12.9934C17.391 13.9955 18.1753 15.1709 18.7204 16.4867L18.3486 11.0337C15.8157 8.50089 13.0515 7.06891 9.46911 7.06891H4.71422C2.1107 7.06794 0 9.17864 0 11.7822V17.5982C0 20.2017 2.1107 22.3124 4.71422 22.3124H7.06795V24.6662C7.06795 27.2697 9.17865 29.3804 11.7822 29.3804H17.5992C20.2027 29.3804 22.3134 27.2697 22.3134 24.6662H19.5414C19.5414 25.737 18.67 26.6084 17.5992 26.6084H11.7822C10.7113 26.6084 9.83994 25.737 9.83994 24.6662V21.1119C9.83994 20.2443 9.13605 19.5404 8.26853 19.5404H4.71422C3.64338 19.5404 2.77199 18.6691 2.77199 17.5982V11.7822C2.77199 10.7113 3.64338 9.83993 4.71422 9.83993H9.46911Z" fill="white"/>
</g>
<defs>
<clipPath id="clip0_55_2232">
<rect width="29.3814" height="29.3814" fill="white"/>
</clipPath>
</defs>
</svg>
