<svg width="28" height="28" viewBox="0 0 28 28" fill="none" xmlns="http://www.w3.org/2000/svg">
<path d="M0 11.7859C0 14.9117 1.24172 17.9095 3.452 20.1198C5.66228 22.33 8.66007 23.5718 11.7859 23.5718C14.4033 23.575 16.9458 22.6981 19.0047 21.082L25.4722 27.5642C25.6092 27.7023 25.7721 27.8119 25.9517 27.8867C26.1312 27.9615 26.3237 28 26.5182 28C26.7127 28 26.9053 27.9615 27.0848 27.8867C27.2643 27.8119 27.4273 27.7023 27.5642 27.5642C27.7023 27.4273 27.8119 27.2643 27.8867 27.0848C27.9615 26.9053 28 26.7127 28 26.5182C28 26.3237 27.9615 26.1312 27.8867 25.9517C27.8119 25.7721 27.7023 25.6092 27.5642 25.4722L21.082 19.0047C22.6981 16.9458 23.575 14.4033 23.5718 11.7859C23.5718 8.66007 22.33 5.66228 20.1198 3.452C17.9095 1.24172 14.9117 0 11.7859 0C8.66007 0 5.66228 1.24172 3.452 3.452C1.24172 5.66228 0 8.66007 0 11.7859ZM11.7859 2.94647C13.5341 2.94647 15.2432 3.46489 16.6968 4.43618C18.1504 5.40746 19.2834 6.78799 19.9524 8.40318C20.6215 10.0184 20.7965 11.7957 20.4554 13.5104C20.1144 15.225 19.2725 16.8001 18.0363 18.0363C16.8001 19.2725 15.225 20.1144 13.5104 20.4554C11.7957 20.7965 10.0184 20.6215 8.40318 19.9524C6.78799 19.2834 5.40746 18.1504 4.43618 16.6968C3.46489 15.2432 2.94647 13.5341 2.94647 11.7859C2.94647 9.44152 3.87776 7.19318 5.53547 5.53547C7.19318 3.87776 9.44152 2.94647 11.7859 2.94647Z" fill="#ED880A"/>
</svg>
