<svg width="11" height="11" viewBox="0 0 11 11" fill="none" xmlns="http://www.w3.org/2000/svg">
    <path
        d="M0.197199 10.4761C0.259174 10.5385 0.332908 10.5881 0.414148 10.622C0.495387 10.6558 0.582524 10.6733 0.670532 10.6733C0.75854 10.6733 0.845677 10.6558 0.926917 10.622C1.00816 10.5881 1.08189 10.5385 1.14387 10.4761L5.3372 6.27606L9.53053 10.4761C9.59251 10.5385 9.66624 10.5881 9.74748 10.622C9.82872 10.6558 9.91586 10.6733 10.0039 10.6733C10.0919 10.6733 10.179 10.6558 10.2603 10.622C10.3415 10.5881 10.4152 10.5385 10.4772 10.4761C10.5397 10.4141 10.5893 10.3404 10.6231 10.2591C10.657 10.1779 10.6744 10.0907 10.6744 10.0027C10.6744 9.91472 10.657 9.82758 10.6231 9.74634C10.5893 9.6651 10.5397 9.59137 10.4772 9.5294L6.2772 5.33606L10.4772 1.14273C10.6027 1.01719 10.6733 0.846929 10.6733 0.669394C10.6733 0.49186 10.6027 0.321597 10.4772 0.196061C10.3517 0.0705253 10.1814 0 10.0039 0C9.82633 0 9.65607 0.0705253 9.53053 0.196061L5.3372 4.39606L1.14387 0.196061C1.01833 0.0705253 0.848067 1.57623e-07 0.670532 1.58946e-07C0.492998 1.60268e-07 0.322735 0.0705253 0.197199 0.196061C0.0716631 0.321597 0.00113789 0.49186 0.00113789 0.669394C0.00113789 0.846929 0.0716631 1.01719 0.197199 1.14273L4.3972 5.33606L0.197199 9.5294C0.134713 9.59137 0.0851172 9.6651 0.0512714 9.74634C0.0174257 9.82758 0 9.91472 0 10.0027C0 10.0907 0.0174257 10.1779 0.0512714 10.2591C0.0851172 10.3404 0.134713 10.4141 0.197199 10.4761Z"
        fill="#999999" />
</svg>
    